<mxfile host="app.diagrams.net" modified="2023-11-05T02:46:29.873Z" agent="Mozilla/5.0 (Windows NT 10.0; Win64; x64) AppleWebKit/537.36 (KHTML, like Gecko) Chrome/119.0.0.0 Safari/537.36" etag="TV_YpQGPoq3aguAXDPv0" version="22.0.8" type="device" pages="3">
  <diagram id="C5RBs43oDa-KdzZeNtuy" name="estructura-principal">
    <mxGraphModel dx="3585" dy="2800" grid="1" gridSize="10" guides="1" tooltips="1" connect="1" arrows="1" fold="1" page="0" pageScale="1" pageWidth="827" pageHeight="1169" background="none" math="0" shadow="0">
      <root>
        <mxCell id="WIyWlLk6GJQsqaUBKTNV-0" />
        <mxCell id="WIyWlLk6GJQsqaUBKTNV-1" parent="WIyWlLk6GJQsqaUBKTNV-0" />
        <mxCell id="DVkl-K_QWlgrV8dKoYW--53" style="edgeStyle=orthogonalEdgeStyle;rounded=0;orthogonalLoop=1;jettySize=auto;html=1;exitX=0.5;exitY=1;exitDx=0;exitDy=0;entryX=0.5;entryY=0;entryDx=0;entryDy=0;align=center;verticalAlign=middle;horizontal=1;endArrow=none;endFill=0;" parent="WIyWlLk6GJQsqaUBKTNV-1" target="DVkl-K_QWlgrV8dKoYW--43" edge="1">
          <mxGeometry relative="1" as="geometry">
            <mxPoint x="368.8800000000001" y="-400" as="sourcePoint" />
          </mxGeometry>
        </mxCell>
        <mxCell id="TWiRepC6MktaTh9VeKn_-20" style="edgeStyle=orthogonalEdgeStyle;rounded=0;orthogonalLoop=1;jettySize=auto;html=1;exitX=0.5;exitY=1;exitDx=0;exitDy=0;entryX=0.5;entryY=0;entryDx=0;entryDy=0;endArrow=none;endFill=0;" parent="WIyWlLk6GJQsqaUBKTNV-1" source="DVkl-K_QWlgrV8dKoYW--13" target="DVkl-K_QWlgrV8dKoYW--44" edge="1">
          <mxGeometry relative="1" as="geometry" />
        </mxCell>
        <mxCell id="DVkl-K_QWlgrV8dKoYW--13" value="int i=49;i&amp;gt;=0;i--" style="swimlane;horizontal=0;whiteSpace=wrap;html=1;rounded=0;" parent="WIyWlLk6GJQsqaUBKTNV-1" vertex="1">
          <mxGeometry x="880" y="170" width="270" height="220" as="geometry" />
        </mxCell>
        <mxCell id="DVkl-K_QWlgrV8dKoYW--15" value="ciudad_origen,ciudad_destino, costo,distancia" style="shape=trapezoid;perimeter=trapezoidPerimeter;whiteSpace=wrap;html=1;fixedSize=1;direction=west;rounded=0;" parent="DVkl-K_QWlgrV8dKoYW--13" vertex="1">
          <mxGeometry x="50" y="10" width="200" height="50" as="geometry" />
        </mxCell>
        <mxCell id="DVkl-K_QWlgrV8dKoYW--16" value="v_origen[i] = ciudad_origen" style="whiteSpace=wrap;html=1;rounded=0;" parent="DVkl-K_QWlgrV8dKoYW--13" vertex="1">
          <mxGeometry x="90" y="70" width="120" height="30" as="geometry" />
        </mxCell>
        <mxCell id="DVkl-K_QWlgrV8dKoYW--17" value="v_destino[i] = ciudad_ destino" style="whiteSpace=wrap;html=1;rounded=0;" parent="DVkl-K_QWlgrV8dKoYW--13" vertex="1">
          <mxGeometry x="90" y="110" width="120" height="30" as="geometry" />
        </mxCell>
        <mxCell id="DVkl-K_QWlgrV8dKoYW--18" value="v_costo[i] = costo" style="whiteSpace=wrap;html=1;rounded=0;" parent="DVkl-K_QWlgrV8dKoYW--13" vertex="1">
          <mxGeometry x="90" y="150" width="120" height="20" as="geometry" />
        </mxCell>
        <mxCell id="DVkl-K_QWlgrV8dKoYW--19" value="v_distancia[i] = distancia" style="whiteSpace=wrap;html=1;rounded=0;" parent="DVkl-K_QWlgrV8dKoYW--13" vertex="1">
          <mxGeometry x="90" y="180" width="120" height="30" as="geometry" />
        </mxCell>
        <mxCell id="DVkl-K_QWlgrV8dKoYW--27" value="dia != 0" style="swimlane;whiteSpace=wrap;html=1;rounded=0;" parent="WIyWlLk6GJQsqaUBKTNV-1" vertex="1">
          <mxGeometry x="755" y="690" width="520" height="430" as="geometry" />
        </mxCell>
        <mxCell id="5HwcSDc_NaYDKgastAoF-205" value="nro_cliente, cod_vuelo,dia,mes, cant_pasajes,nro_vendedor&amp;nbsp;" style="shape=trapezoid;perimeter=trapezoidPerimeter;whiteSpace=wrap;html=1;fixedSize=1;direction=west;rounded=0;" parent="DVkl-K_QWlgrV8dKoYW--27" vertex="1">
          <mxGeometry x="168.81" y="350" width="182.37" height="60" as="geometry" />
        </mxCell>
        <mxCell id="5HwcSDc_NaYDKgastAoF-150" value="millasPTA[nro_cliente - 1] += v_distancia[cod_vuelo - 1] * cant_pasajes" style="whiteSpace=wrap;html=1;" parent="DVkl-K_QWlgrV8dKoYW--27" vertex="1">
          <mxGeometry x="183.80999999999995" y="50" width="182.38" height="40" as="geometry" />
        </mxCell>
        <mxCell id="DVkl-K_QWlgrV8dKoYW--43" value="int v_origen[50],int v_destino[50], float v_costo[50], v_distancia[50]" style="whiteSpace=wrap;html=1;rounded=0;align=center;verticalAlign=middle;horizontal=1;" parent="WIyWlLk6GJQsqaUBKTNV-1" vertex="1">
          <mxGeometry x="263.88" y="-380" width="210" height="60" as="geometry" />
        </mxCell>
        <mxCell id="DVkl-K_QWlgrV8dKoYW--44" value="F" style="ellipse;whiteSpace=wrap;html=1;rounded=0;" parent="WIyWlLk6GJQsqaUBKTNV-1" vertex="1">
          <mxGeometry x="990" y="410" width="50" height="50" as="geometry" />
        </mxCell>
        <mxCell id="DVkl-K_QWlgrV8dKoYW--55" style="edgeStyle=orthogonalEdgeStyle;rounded=0;orthogonalLoop=1;jettySize=auto;html=1;exitX=0.5;exitY=1;exitDx=0;exitDy=0;entryX=0.462;entryY=0;entryDx=0;entryDy=0;entryPerimeter=0;align=center;verticalAlign=middle;horizontal=1;endArrow=none;endFill=0;" parent="WIyWlLk6GJQsqaUBKTNV-1" source="DVkl-K_QWlgrV8dKoYW--43" edge="1">
          <mxGeometry relative="1" as="geometry">
            <mxPoint x="368.82220000000007" y="-280" as="targetPoint" />
          </mxGeometry>
        </mxCell>
        <mxCell id="dhuMwqZpVVbvkbiRmmKU-24" value="" style="group;rounded=0;" parent="WIyWlLk6GJQsqaUBKTNV-1" vertex="1" connectable="0">
          <mxGeometry x="835" y="40" width="360" height="90" as="geometry" />
        </mxCell>
        <mxCell id="dhuMwqZpVVbvkbiRmmKU-25" value="" style="group;shadow=1;rounded=0;" parent="dhuMwqZpVVbvkbiRmmKU-24" vertex="1" connectable="0">
          <mxGeometry width="360" height="90.00000000000001" as="geometry" />
        </mxCell>
        <mxCell id="dhuMwqZpVVbvkbiRmmKU-26" value="" style="shape=hexagon;perimeter=hexagonPerimeter2;whiteSpace=wrap;html=1;fixedSize=1;size=20;rounded=0;" parent="dhuMwqZpVVbvkbiRmmKU-25" vertex="1">
          <mxGeometry width="360" height="90.00000000000001" as="geometry" />
        </mxCell>
        <mxCell id="dhuMwqZpVVbvkbiRmmKU-27" value="" style="endArrow=none;html=1;rounded=0;entryX=1;entryY=0.5;entryDx=0;entryDy=0;" parent="dhuMwqZpVVbvkbiRmmKU-25" target="dhuMwqZpVVbvkbiRmmKU-26" edge="1">
          <mxGeometry width="50" height="50" relative="1" as="geometry">
            <mxPoint y="44.84250000000002" as="sourcePoint" />
            <mxPoint x="239.99999999999997" y="44.84250000000002" as="targetPoint" />
          </mxGeometry>
        </mxCell>
        <mxCell id="dhuMwqZpVVbvkbiRmmKU-29" value="int v_origen[50],int v_destino[50], float v_costo[50], float v_distancia[50]" style="text;align=center;html=1;verticalAlign=middle;whiteSpace=wrap;rounded=0;fontSize=12;fontFamily=Helvetica;" parent="dhuMwqZpVVbvkbiRmmKU-25" vertex="1">
          <mxGeometry x="130" y="49.09090909090909" width="220" height="33.75" as="geometry" />
        </mxCell>
        <mxCell id="dhuMwqZpVVbvkbiRmmKU-30" value="void fCarga" style="text;align=center;html=1;verticalAlign=middle;whiteSpace=wrap;rounded=0;fontSize=12;fontFamily=Helvetica;" parent="dhuMwqZpVVbvkbiRmmKU-25" vertex="1">
          <mxGeometry x="90" y="16.363636363636363" width="180" height="6.136363636363638" as="geometry" />
        </mxCell>
        <mxCell id="dhuMwqZpVVbvkbiRmmKU-31" value="" style="endArrow=none;html=1;rounded=0;fontFamily=Helvetica;fontSize=12;fontColor=default;exitX=0.375;exitY=1;exitDx=0;exitDy=0;" parent="dhuMwqZpVVbvkbiRmmKU-24" source="dhuMwqZpVVbvkbiRmmKU-26" edge="1">
          <mxGeometry width="50" height="50" relative="1" as="geometry">
            <mxPoint x="59.99999999999999" y="112.5" as="sourcePoint" />
            <mxPoint x="135" y="45.00000000000001" as="targetPoint" />
          </mxGeometry>
        </mxCell>
        <mxCell id="dhuMwqZpVVbvkbiRmmKU-33" value="" style="group;rounded=0;" parent="WIyWlLk6GJQsqaUBKTNV-1" vertex="1" connectable="0">
          <mxGeometry x="720" y="470" width="590" height="120" as="geometry" />
        </mxCell>
        <mxCell id="dhuMwqZpVVbvkbiRmmKU-34" value="" style="group;shadow=1;rounded=0;" parent="dhuMwqZpVVbvkbiRmmKU-33" vertex="1" connectable="0">
          <mxGeometry width="590" height="120" as="geometry" />
        </mxCell>
        <mxCell id="dhuMwqZpVVbvkbiRmmKU-35" value="" style="shape=hexagon;perimeter=hexagonPerimeter2;whiteSpace=wrap;html=1;fixedSize=1;size=20;rounded=0;" parent="dhuMwqZpVVbvkbiRmmKU-34" vertex="1">
          <mxGeometry width="590" height="120" as="geometry" />
        </mxCell>
        <mxCell id="dhuMwqZpVVbvkbiRmmKU-36" value="" style="endArrow=none;html=1;rounded=0;entryX=1;entryY=0.5;entryDx=0;entryDy=0;" parent="dhuMwqZpVVbvkbiRmmKU-34" target="dhuMwqZpVVbvkbiRmmKU-35" edge="1">
          <mxGeometry width="50" height="50" relative="1" as="geometry">
            <mxPoint y="59.79000000000002" as="sourcePoint" />
            <mxPoint x="393.3333333333333" y="59.79000000000002" as="targetPoint" />
          </mxGeometry>
        </mxCell>
        <mxCell id="dhuMwqZpVVbvkbiRmmKU-38" value="float millasPTA[150], float v_distancia[50], int v_max[12], int vendedor_max[12], float recaudacionVendedor[8], float v_costo[50]&amp;nbsp;" style="text;align=center;html=1;verticalAlign=middle;whiteSpace=wrap;rounded=0;fontSize=12;fontFamily=Helvetica;" parent="dhuMwqZpVVbvkbiRmmKU-34" vertex="1">
          <mxGeometry x="230" y="60" width="304.17" height="45" as="geometry" />
        </mxCell>
        <mxCell id="dhuMwqZpVVbvkbiRmmKU-39" value="void fProceso" style="text;align=center;html=1;verticalAlign=middle;whiteSpace=wrap;rounded=0;fontSize=12;fontFamily=Helvetica;" parent="dhuMwqZpVVbvkbiRmmKU-34" vertex="1">
          <mxGeometry x="147.5" y="15" width="295" height="15" as="geometry" />
        </mxCell>
        <mxCell id="dhuMwqZpVVbvkbiRmmKU-40" value="" style="endArrow=none;html=1;rounded=0;fontFamily=Helvetica;fontSize=12;fontColor=default;exitX=0.375;exitY=1;exitDx=0;exitDy=0;" parent="dhuMwqZpVVbvkbiRmmKU-33" source="dhuMwqZpVVbvkbiRmmKU-35" edge="1">
          <mxGeometry width="50" height="50" relative="1" as="geometry">
            <mxPoint x="98.33333333333333" y="150" as="sourcePoint" />
            <mxPoint x="221.25" y="60" as="targetPoint" />
          </mxGeometry>
        </mxCell>
        <mxCell id="dhuMwqZpVVbvkbiRmmKU-65" value="" style="group;rounded=0;align=center;verticalAlign=middle;horizontal=1;" parent="WIyWlLk6GJQsqaUBKTNV-1" vertex="1" connectable="0">
          <mxGeometry x="188.88" y="-280" width="360" height="90" as="geometry" />
        </mxCell>
        <mxCell id="dhuMwqZpVVbvkbiRmmKU-66" value="" style="group;shadow=1;rounded=0;align=center;verticalAlign=middle;horizontal=1;" parent="dhuMwqZpVVbvkbiRmmKU-65" vertex="1" connectable="0">
          <mxGeometry width="360" height="90" as="geometry" />
        </mxCell>
        <mxCell id="dhuMwqZpVVbvkbiRmmKU-67" value="" style="shape=hexagon;perimeter=hexagonPerimeter2;whiteSpace=wrap;html=1;fixedSize=1;size=20;rounded=0;align=center;verticalAlign=middle;horizontal=1;" parent="dhuMwqZpVVbvkbiRmmKU-66" vertex="1">
          <mxGeometry width="360" height="90" as="geometry" />
        </mxCell>
        <mxCell id="dhuMwqZpVVbvkbiRmmKU-68" value="" style="endArrow=none;html=1;rounded=0;entryX=1;entryY=0.5;entryDx=0;entryDy=0;align=center;verticalAlign=middle;horizontal=1;" parent="dhuMwqZpVVbvkbiRmmKU-66" target="dhuMwqZpVVbvkbiRmmKU-67" edge="1">
          <mxGeometry width="50" height="50" relative="1" as="geometry">
            <mxPoint y="44.842500000000015" as="sourcePoint" />
            <mxPoint x="239.99999999999997" y="44.842500000000015" as="targetPoint" />
          </mxGeometry>
        </mxCell>
        <mxCell id="dhuMwqZpVVbvkbiRmmKU-69" value="v_origen, v_destino,&amp;nbsp; v_costo, v_distancia" style="text;align=center;html=1;verticalAlign=middle;whiteSpace=wrap;rounded=0;fontSize=12;fontFamily=Helvetica;horizontal=1;" parent="dhuMwqZpVVbvkbiRmmKU-66" vertex="1">
          <mxGeometry x="150.00260869565216" y="45" width="178.69304347826088" height="33.75" as="geometry" />
        </mxCell>
        <mxCell id="dhuMwqZpVVbvkbiRmmKU-70" value="&amp;nbsp;fCarga" style="text;align=center;html=1;verticalAlign=middle;whiteSpace=wrap;rounded=0;fontSize=12;fontFamily=Helvetica;horizontal=1;" parent="dhuMwqZpVVbvkbiRmmKU-66" vertex="1">
          <mxGeometry x="90" y="16.363636363636363" width="180" height="6.136363636363637" as="geometry" />
        </mxCell>
        <mxCell id="dhuMwqZpVVbvkbiRmmKU-71" value="" style="endArrow=none;html=1;rounded=0;fontFamily=Helvetica;fontSize=12;fontColor=default;exitX=0.375;exitY=1;exitDx=0;exitDy=0;align=center;verticalAlign=middle;horizontal=1;" parent="dhuMwqZpVVbvkbiRmmKU-65" source="dhuMwqZpVVbvkbiRmmKU-67" edge="1">
          <mxGeometry width="50" height="50" relative="1" as="geometry">
            <mxPoint x="59.99999999999999" y="112.5" as="sourcePoint" />
            <mxPoint x="135" y="45" as="targetPoint" />
          </mxGeometry>
        </mxCell>
        <mxCell id="dhuMwqZpVVbvkbiRmmKU-77" value="" style="group;rounded=0;align=center;verticalAlign=middle;horizontal=1;" parent="WIyWlLk6GJQsqaUBKTNV-1" vertex="1" connectable="0">
          <mxGeometry x="200" y="400" width="325.01" height="100" as="geometry" />
        </mxCell>
        <mxCell id="dhuMwqZpVVbvkbiRmmKU-78" value="" style="group;shadow=1;rounded=0;align=center;verticalAlign=middle;horizontal=1;" parent="dhuMwqZpVVbvkbiRmmKU-77" vertex="1" connectable="0">
          <mxGeometry width="325.01" height="100" as="geometry" />
        </mxCell>
        <mxCell id="dhuMwqZpVVbvkbiRmmKU-79" value="" style="shape=hexagon;perimeter=hexagonPerimeter2;whiteSpace=wrap;html=1;fixedSize=1;size=20;rounded=0;align=center;verticalAlign=middle;horizontal=1;" parent="dhuMwqZpVVbvkbiRmmKU-78" vertex="1">
          <mxGeometry width="325.01" height="100" as="geometry" />
        </mxCell>
        <mxCell id="dhuMwqZpVVbvkbiRmmKU-80" value="" style="endArrow=none;html=1;rounded=0;entryX=1;entryY=0.5;entryDx=0;entryDy=0;align=center;verticalAlign=middle;horizontal=1;" parent="dhuMwqZpVVbvkbiRmmKU-78" target="dhuMwqZpVVbvkbiRmmKU-79" edge="1">
          <mxGeometry width="50" height="50" relative="1" as="geometry">
            <mxPoint y="49.82500000000002" as="sourcePoint" />
            <mxPoint x="216.67333333333332" y="49.82500000000002" as="targetPoint" />
          </mxGeometry>
        </mxCell>
        <mxCell id="dhuMwqZpVVbvkbiRmmKU-82" value="millasPTA, v_distancia, v_max, vendedor_max, recaudacionVendedor, v_costo" style="text;align=center;html=1;verticalAlign=middle;whiteSpace=wrap;rounded=0;fontSize=12;fontFamily=Helvetica;horizontal=1;" parent="dhuMwqZpVVbvkbiRmmKU-78" vertex="1">
          <mxGeometry x="120" y="60" width="190" height="37.5" as="geometry" />
        </mxCell>
        <mxCell id="dhuMwqZpVVbvkbiRmmKU-83" value="fProceso" style="text;align=center;html=1;verticalAlign=middle;whiteSpace=wrap;rounded=0;fontSize=12;fontFamily=Helvetica;horizontal=1;" parent="dhuMwqZpVVbvkbiRmmKU-78" vertex="1">
          <mxGeometry x="81.2525" y="12.5" width="162.505" height="12.5" as="geometry" />
        </mxCell>
        <mxCell id="dhuMwqZpVVbvkbiRmmKU-84" value="" style="endArrow=none;html=1;rounded=0;fontFamily=Helvetica;fontSize=12;fontColor=default;exitX=0.375;exitY=1;exitDx=0;exitDy=0;align=center;verticalAlign=middle;horizontal=1;" parent="dhuMwqZpVVbvkbiRmmKU-77" source="dhuMwqZpVVbvkbiRmmKU-79" edge="1">
          <mxGeometry width="50" height="50" relative="1" as="geometry">
            <mxPoint x="54.16833333333333" y="125" as="sourcePoint" />
            <mxPoint x="121.87875" y="50" as="targetPoint" />
          </mxGeometry>
        </mxCell>
        <mxCell id="5HwcSDc_NaYDKgastAoF-2" value="" style="group;align=center;verticalAlign=middle;horizontal=1;" parent="WIyWlLk6GJQsqaUBKTNV-1" vertex="1" connectable="0">
          <mxGeometry x="308.88" y="-480" width="120" height="80" as="geometry" />
        </mxCell>
        <mxCell id="5HwcSDc_NaYDKgastAoF-3" value="" style="group;shadow=1;align=center;verticalAlign=middle;horizontal=1;" parent="5HwcSDc_NaYDKgastAoF-2" vertex="1" connectable="0">
          <mxGeometry width="120" height="80" as="geometry" />
        </mxCell>
        <mxCell id="5HwcSDc_NaYDKgastAoF-4" value="" style="shape=hexagon;perimeter=hexagonPerimeter2;whiteSpace=wrap;html=1;fixedSize=1;size=20;align=center;verticalAlign=middle;horizontal=1;" parent="5HwcSDc_NaYDKgastAoF-3" vertex="1">
          <mxGeometry width="120" height="80" as="geometry" />
        </mxCell>
        <mxCell id="5HwcSDc_NaYDKgastAoF-5" value="" style="endArrow=none;html=1;rounded=0;entryX=1;entryY=0.5;entryDx=0;entryDy=0;align=center;verticalAlign=middle;horizontal=1;" parent="5HwcSDc_NaYDKgastAoF-3" target="5HwcSDc_NaYDKgastAoF-4" edge="1">
          <mxGeometry width="50" height="50" relative="1" as="geometry">
            <mxPoint y="39.860000000000014" as="sourcePoint" />
            <mxPoint x="80" y="39.860000000000014" as="targetPoint" />
          </mxGeometry>
        </mxCell>
        <mxCell id="5HwcSDc_NaYDKgastAoF-8" value="void main" style="text;align=center;html=1;verticalAlign=middle;whiteSpace=wrap;rounded=0;fontSize=12;fontFamily=Helvetica;horizontal=1;" parent="5HwcSDc_NaYDKgastAoF-3" vertex="1">
          <mxGeometry x="30" y="10" width="60" height="10" as="geometry" />
        </mxCell>
        <mxCell id="5HwcSDc_NaYDKgastAoF-9" value="" style="endArrow=none;html=1;rounded=0;fontFamily=Helvetica;fontSize=12;fontColor=default;exitX=0.375;exitY=1;exitDx=0;exitDy=0;align=center;verticalAlign=middle;horizontal=1;" parent="5HwcSDc_NaYDKgastAoF-2" source="5HwcSDc_NaYDKgastAoF-4" edge="1">
          <mxGeometry width="50" height="50" relative="1" as="geometry">
            <mxPoint x="20" y="100" as="sourcePoint" />
            <mxPoint x="45" y="40" as="targetPoint" />
          </mxGeometry>
        </mxCell>
        <mxCell id="TWiRepC6MktaTh9VeKn_-5" style="edgeStyle=orthogonalEdgeStyle;rounded=0;orthogonalLoop=1;jettySize=auto;html=1;exitX=0.5;exitY=1;exitDx=0;exitDy=0;entryX=0.5;entryY=0;entryDx=0;entryDy=0;endArrow=none;endFill=0;" parent="WIyWlLk6GJQsqaUBKTNV-1" source="5HwcSDc_NaYDKgastAoF-30" target="5HwcSDc_NaYDKgastAoF-33" edge="1">
          <mxGeometry relative="1" as="geometry" />
        </mxCell>
        <mxCell id="5HwcSDc_NaYDKgastAoF-30" value="float millasPTA[150]&lt;br&gt;" style="whiteSpace=wrap;html=1;align=center;verticalAlign=middle;horizontal=1;" parent="WIyWlLk6GJQsqaUBKTNV-1" vertex="1">
          <mxGeometry x="308.88" y="-170" width="120" height="30" as="geometry" />
        </mxCell>
        <mxCell id="5HwcSDc_NaYDKgastAoF-31" value="" style="group;shadow=1;align=center;verticalAlign=middle;horizontal=1;" parent="WIyWlLk6GJQsqaUBKTNV-1" vertex="1" connectable="0">
          <mxGeometry x="238.88" y="-120" width="260" height="80" as="geometry" />
        </mxCell>
        <mxCell id="5HwcSDc_NaYDKgastAoF-33" value="" style="shape=hexagon;perimeter=hexagonPerimeter2;whiteSpace=wrap;html=1;fixedSize=1;size=20;align=center;verticalAlign=middle;horizontal=1;" parent="5HwcSDc_NaYDKgastAoF-31" vertex="1">
          <mxGeometry width="260" height="80" as="geometry" />
        </mxCell>
        <mxCell id="5HwcSDc_NaYDKgastAoF-34" value="" style="endArrow=none;html=1;rounded=0;entryX=1;entryY=0.5;entryDx=0;entryDy=0;align=center;verticalAlign=middle;horizontal=1;" parent="5HwcSDc_NaYDKgastAoF-31" target="5HwcSDc_NaYDKgastAoF-33" edge="1">
          <mxGeometry width="50" height="50" relative="1" as="geometry">
            <mxPoint y="39.860000000000014" as="sourcePoint" />
            <mxPoint x="173.33333333333331" y="39.860000000000014" as="targetPoint" />
          </mxGeometry>
        </mxCell>
        <mxCell id="5HwcSDc_NaYDKgastAoF-35" value="150" style="text;strokeColor=none;align=center;fillColor=none;html=1;verticalAlign=middle;whiteSpace=wrap;rounded=0;fontSize=12;fontFamily=Helvetica;fontColor=default;horizontal=1;" parent="5HwcSDc_NaYDKgastAoF-31" vertex="1">
          <mxGeometry x="21.666666666666664" y="40" width="86.66666666666666" height="30" as="geometry" />
        </mxCell>
        <mxCell id="5HwcSDc_NaYDKgastAoF-36" value="millasPTA" style="text;strokeColor=none;align=center;fillColor=none;html=1;verticalAlign=middle;whiteSpace=wrap;rounded=0;fontSize=12;fontFamily=Helvetica;fontColor=default;horizontal=1;" parent="5HwcSDc_NaYDKgastAoF-31" vertex="1">
          <mxGeometry x="108.33333333333333" y="40" width="86.66666666666666" height="30" as="geometry" />
        </mxCell>
        <mxCell id="5HwcSDc_NaYDKgastAoF-37" value="inicializarCero" style="text;strokeColor=none;align=center;fillColor=none;html=1;verticalAlign=middle;whiteSpace=wrap;rounded=0;fontSize=12;fontFamily=Helvetica;fontColor=default;horizontal=1;" parent="5HwcSDc_NaYDKgastAoF-31" vertex="1">
          <mxGeometry x="65" y="10" width="130" height="10" as="geometry" />
        </mxCell>
        <mxCell id="5HwcSDc_NaYDKgastAoF-38" value="" style="endArrow=none;html=1;rounded=0;exitX=0.415;exitY=0.995;exitDx=0;exitDy=0;exitPerimeter=0;align=center;verticalAlign=middle;horizontal=1;" parent="5HwcSDc_NaYDKgastAoF-31" source="5HwcSDc_NaYDKgastAoF-33" edge="1">
          <mxGeometry width="50" height="50" relative="1" as="geometry">
            <mxPoint x="125.16000000000003" y="60" as="sourcePoint" />
            <mxPoint x="108.32952380952389" y="40" as="targetPoint" />
          </mxGeometry>
        </mxCell>
        <mxCell id="5HwcSDc_NaYDKgastAoF-40" value="" style="group" parent="WIyWlLk6GJQsqaUBKTNV-1" vertex="1" connectable="0">
          <mxGeometry x="892.63" y="1160" width="260" height="80" as="geometry" />
        </mxCell>
        <mxCell id="5HwcSDc_NaYDKgastAoF-41" value="" style="group;shadow=1;" parent="5HwcSDc_NaYDKgastAoF-40" vertex="1" connectable="0">
          <mxGeometry width="260" height="80" as="geometry" />
        </mxCell>
        <mxCell id="5HwcSDc_NaYDKgastAoF-42" value="" style="shape=hexagon;perimeter=hexagonPerimeter2;whiteSpace=wrap;html=1;fixedSize=1;size=20;" parent="5HwcSDc_NaYDKgastAoF-41" vertex="1">
          <mxGeometry width="260" height="80" as="geometry" />
        </mxCell>
        <mxCell id="5HwcSDc_NaYDKgastAoF-43" value="" style="endArrow=none;html=1;rounded=0;entryX=1;entryY=0.5;entryDx=0;entryDy=0;" parent="5HwcSDc_NaYDKgastAoF-41" target="5HwcSDc_NaYDKgastAoF-42" edge="1">
          <mxGeometry width="50" height="50" relative="1" as="geometry">
            <mxPoint y="39.860000000000014" as="sourcePoint" />
            <mxPoint x="173.33333333333331" y="39.860000000000014" as="targetPoint" />
          </mxGeometry>
        </mxCell>
        <mxCell id="5HwcSDc_NaYDKgastAoF-45" value="float millasPTA[150]" style="text;strokeColor=none;align=center;fillColor=none;html=1;verticalAlign=middle;whiteSpace=wrap;rounded=0;fontSize=12;fontFamily=Helvetica;fontColor=default;" parent="5HwcSDc_NaYDKgastAoF-41" vertex="1">
          <mxGeometry x="108.33333333333333" y="40" width="86.66666666666666" height="30" as="geometry" />
        </mxCell>
        <mxCell id="5HwcSDc_NaYDKgastAoF-46" value="void buscarMax" style="text;strokeColor=none;align=center;fillColor=none;html=1;verticalAlign=middle;whiteSpace=wrap;rounded=0;fontSize=12;fontFamily=Helvetica;fontColor=default;" parent="5HwcSDc_NaYDKgastAoF-41" vertex="1">
          <mxGeometry x="65" y="10" width="130" height="10" as="geometry" />
        </mxCell>
        <mxCell id="5HwcSDc_NaYDKgastAoF-47" value="" style="endArrow=none;html=1;rounded=0;fontFamily=Helvetica;fontSize=12;fontColor=default;exitX=0.375;exitY=1;exitDx=0;exitDy=0;movable=0;resizable=0;rotatable=0;deletable=0;editable=0;locked=1;connectable=0;" parent="5HwcSDc_NaYDKgastAoF-40" source="5HwcSDc_NaYDKgastAoF-42" edge="1">
          <mxGeometry width="50" height="50" relative="1" as="geometry">
            <mxPoint x="43.33333333333333" y="100" as="sourcePoint" />
            <mxPoint x="97.5" y="40" as="targetPoint" />
          </mxGeometry>
        </mxCell>
        <mxCell id="5HwcSDc_NaYDKgastAoF-58" style="edgeStyle=orthogonalEdgeStyle;rounded=0;orthogonalLoop=1;jettySize=auto;html=1;exitX=0.5;exitY=1;exitDx=0;exitDy=0;entryX=0.5;entryY=0;entryDx=0;entryDy=0;endArrow=none;endFill=0;" parent="WIyWlLk6GJQsqaUBKTNV-1" source="5HwcSDc_NaYDKgastAoF-48" edge="1">
          <mxGeometry relative="1" as="geometry">
            <mxPoint x="1009.9999999999999" y="1580" as="targetPoint" />
          </mxGeometry>
        </mxCell>
        <mxCell id="5HwcSDc_NaYDKgastAoF-48" value="int i=1;I&amp;lt;150;i++" style="swimlane;horizontal=0;whiteSpace=wrap;html=1;" parent="WIyWlLk6GJQsqaUBKTNV-1" vertex="1">
          <mxGeometry x="830" y="1350" width="360" height="200" as="geometry" />
        </mxCell>
        <mxCell id="5HwcSDc_NaYDKgastAoF-54" style="edgeStyle=orthogonalEdgeStyle;rounded=0;orthogonalLoop=1;jettySize=auto;html=1;exitX=0;exitY=0.5;exitDx=0;exitDy=0;endArrow=none;endFill=0;" parent="5HwcSDc_NaYDKgastAoF-48" source="5HwcSDc_NaYDKgastAoF-51" target="5HwcSDc_NaYDKgastAoF-52" edge="1">
          <mxGeometry relative="1" as="geometry" />
        </mxCell>
        <mxCell id="5HwcSDc_NaYDKgastAoF-51" value="millasPTA[i] &amp;gt; max" style="rhombus;whiteSpace=wrap;html=1;" parent="5HwcSDc_NaYDKgastAoF-48" vertex="1">
          <mxGeometry x="142.63" y="10" width="117.37" height="80" as="geometry" />
        </mxCell>
        <mxCell id="5HwcSDc_NaYDKgastAoF-52" value="max = millasPTA[i]" style="whiteSpace=wrap;html=1;" parent="5HwcSDc_NaYDKgastAoF-48" vertex="1">
          <mxGeometry x="50.960000000000036" y="85" width="120" height="30" as="geometry" />
        </mxCell>
        <mxCell id="5HwcSDc_NaYDKgastAoF-53" value="&amp;nbsp;clienteMaxMillas = i + 1" style="whiteSpace=wrap;html=1;" parent="5HwcSDc_NaYDKgastAoF-48" vertex="1">
          <mxGeometry x="50.96" y="130" width="129.04" height="30" as="geometry" />
        </mxCell>
        <mxCell id="5HwcSDc_NaYDKgastAoF-55" style="edgeStyle=orthogonalEdgeStyle;rounded=0;orthogonalLoop=1;jettySize=auto;html=1;exitX=0.5;exitY=1;exitDx=0;exitDy=0;entryX=0.462;entryY=0.04;entryDx=0;entryDy=0;entryPerimeter=0;endArrow=none;endFill=0;" parent="5HwcSDc_NaYDKgastAoF-48" source="5HwcSDc_NaYDKgastAoF-52" target="5HwcSDc_NaYDKgastAoF-53" edge="1">
          <mxGeometry relative="1" as="geometry" />
        </mxCell>
        <mxCell id="5HwcSDc_NaYDKgastAoF-56" style="edgeStyle=orthogonalEdgeStyle;rounded=0;orthogonalLoop=1;jettySize=auto;html=1;exitX=1;exitY=0.5;exitDx=0;exitDy=0;entryX=0.475;entryY=0.987;entryDx=0;entryDy=0;entryPerimeter=0;endArrow=none;endFill=0;" parent="5HwcSDc_NaYDKgastAoF-48" source="5HwcSDc_NaYDKgastAoF-51" target="5HwcSDc_NaYDKgastAoF-53" edge="1">
          <mxGeometry relative="1" as="geometry" />
        </mxCell>
        <mxCell id="5HwcSDc_NaYDKgastAoF-61" style="edgeStyle=orthogonalEdgeStyle;rounded=0;orthogonalLoop=1;jettySize=auto;html=1;exitX=0.5;exitY=1;exitDx=0;exitDy=0;entryX=0.5;entryY=0;entryDx=0;entryDy=0;endArrow=none;endFill=0;" parent="WIyWlLk6GJQsqaUBKTNV-1" source="5HwcSDc_NaYDKgastAoF-49" target="5HwcSDc_NaYDKgastAoF-50" edge="1">
          <mxGeometry relative="1" as="geometry" />
        </mxCell>
        <mxCell id="5HwcSDc_NaYDKgastAoF-49" value="max = millasPTA[0]" style="whiteSpace=wrap;html=1;" parent="WIyWlLk6GJQsqaUBKTNV-1" vertex="1">
          <mxGeometry x="962.63" y="1260" width="120" height="30" as="geometry" />
        </mxCell>
        <mxCell id="5HwcSDc_NaYDKgastAoF-62" style="edgeStyle=orthogonalEdgeStyle;rounded=0;orthogonalLoop=1;jettySize=auto;html=1;exitX=0.5;exitY=1;exitDx=0;exitDy=0;endArrow=none;endFill=0;" parent="WIyWlLk6GJQsqaUBKTNV-1" source="5HwcSDc_NaYDKgastAoF-50" edge="1">
          <mxGeometry relative="1" as="geometry">
            <mxPoint x="1022.9403448275862" y="1350" as="targetPoint" />
          </mxGeometry>
        </mxCell>
        <mxCell id="5HwcSDc_NaYDKgastAoF-50" value="clienteMaxMillas = 1" style="whiteSpace=wrap;html=1;" parent="WIyWlLk6GJQsqaUBKTNV-1" vertex="1">
          <mxGeometry x="962.63" y="1300" width="120" height="30" as="geometry" />
        </mxCell>
        <mxCell id="5HwcSDc_NaYDKgastAoF-59" value="F" style="ellipse;whiteSpace=wrap;html=1;" parent="WIyWlLk6GJQsqaUBKTNV-1" vertex="1">
          <mxGeometry x="986.19" y="1640" width="50" height="50" as="geometry" />
        </mxCell>
        <mxCell id="5HwcSDc_NaYDKgastAoF-63" style="edgeStyle=orthogonalEdgeStyle;rounded=0;orthogonalLoop=1;jettySize=auto;html=1;exitX=0.5;exitY=1;exitDx=0;exitDy=0;entryX=0.5;entryY=0;entryDx=0;entryDy=0;endArrow=none;endFill=0;" parent="WIyWlLk6GJQsqaUBKTNV-1" source="5HwcSDc_NaYDKgastAoF-42" target="5HwcSDc_NaYDKgastAoF-49" edge="1">
          <mxGeometry relative="1" as="geometry" />
        </mxCell>
        <mxCell id="TWiRepC6MktaTh9VeKn_-27" style="edgeStyle=orthogonalEdgeStyle;rounded=0;orthogonalLoop=1;jettySize=auto;html=1;exitX=0.5;exitY=1;exitDx=0;exitDy=0;entryX=0.5;entryY=0;entryDx=0;entryDy=0;endArrow=none;endFill=0;" parent="WIyWlLk6GJQsqaUBKTNV-1" source="5HwcSDc_NaYDKgastAoF-79" target="5HwcSDc_NaYDKgastAoF-59" edge="1">
          <mxGeometry relative="1" as="geometry" />
        </mxCell>
        <mxCell id="5HwcSDc_NaYDKgastAoF-79" value="clienteMaxMillas" style="shape=trapezoid;perimeter=trapezoidPerimeter;whiteSpace=wrap;html=1;fixedSize=1;" parent="WIyWlLk6GJQsqaUBKTNV-1" vertex="1">
          <mxGeometry x="950" y="1580" width="120" height="40" as="geometry" />
        </mxCell>
        <mxCell id="5HwcSDc_NaYDKgastAoF-81" value="" style="group;align=center;verticalAlign=middle;horizontal=1;" parent="WIyWlLk6GJQsqaUBKTNV-1" vertex="1" connectable="0">
          <mxGeometry x="232.5" y="560" width="260" height="80" as="geometry" />
        </mxCell>
        <mxCell id="5HwcSDc_NaYDKgastAoF-82" value="" style="group;shadow=1;align=center;verticalAlign=middle;horizontal=1;" parent="5HwcSDc_NaYDKgastAoF-81" vertex="1" connectable="0">
          <mxGeometry width="260" height="80" as="geometry" />
        </mxCell>
        <mxCell id="5HwcSDc_NaYDKgastAoF-83" value="" style="shape=hexagon;perimeter=hexagonPerimeter2;whiteSpace=wrap;html=1;fixedSize=1;size=20;align=center;verticalAlign=middle;horizontal=1;" parent="5HwcSDc_NaYDKgastAoF-82" vertex="1">
          <mxGeometry width="260" height="80" as="geometry" />
        </mxCell>
        <mxCell id="5HwcSDc_NaYDKgastAoF-84" value="" style="endArrow=none;html=1;rounded=0;entryX=1;entryY=0.5;entryDx=0;entryDy=0;align=center;verticalAlign=middle;horizontal=1;" parent="5HwcSDc_NaYDKgastAoF-82" target="5HwcSDc_NaYDKgastAoF-83" edge="1">
          <mxGeometry width="50" height="50" relative="1" as="geometry">
            <mxPoint y="39.860000000000014" as="sourcePoint" />
            <mxPoint x="173.33333333333331" y="39.860000000000014" as="targetPoint" />
          </mxGeometry>
        </mxCell>
        <mxCell id="5HwcSDc_NaYDKgastAoF-85" value="&amp;nbsp;millasPTA" style="text;strokeColor=none;align=center;fillColor=none;html=1;verticalAlign=middle;whiteSpace=wrap;rounded=0;fontSize=12;fontFamily=Helvetica;fontColor=default;horizontal=1;" parent="5HwcSDc_NaYDKgastAoF-82" vertex="1">
          <mxGeometry x="108.33333333333333" y="40" width="86.66666666666666" height="30" as="geometry" />
        </mxCell>
        <mxCell id="5HwcSDc_NaYDKgastAoF-86" value="buscarMax" style="text;strokeColor=none;align=center;fillColor=none;html=1;verticalAlign=middle;whiteSpace=wrap;rounded=0;fontSize=12;fontFamily=Helvetica;fontColor=default;horizontal=1;" parent="5HwcSDc_NaYDKgastAoF-82" vertex="1">
          <mxGeometry x="65" y="10" width="130" height="10" as="geometry" />
        </mxCell>
        <mxCell id="5HwcSDc_NaYDKgastAoF-87" value="" style="endArrow=none;html=1;rounded=0;fontFamily=Helvetica;fontSize=12;fontColor=default;exitX=0.375;exitY=1;exitDx=0;exitDy=0;movable=0;resizable=0;rotatable=0;deletable=0;editable=0;locked=1;connectable=0;" parent="5HwcSDc_NaYDKgastAoF-81" source="5HwcSDc_NaYDKgastAoF-83" edge="1">
          <mxGeometry width="50" height="50" relative="1" as="geometry">
            <mxPoint x="43.33333333333333" y="100" as="sourcePoint" />
            <mxPoint x="97.5" y="40" as="targetPoint" />
          </mxGeometry>
        </mxCell>
        <mxCell id="5HwcSDc_NaYDKgastAoF-97" value="" style="group" parent="WIyWlLk6GJQsqaUBKTNV-1" vertex="1" connectable="0">
          <mxGeometry x="821.5" y="1720" width="370" height="80" as="geometry" />
        </mxCell>
        <mxCell id="5HwcSDc_NaYDKgastAoF-98" value="" style="group;shadow=1;" parent="5HwcSDc_NaYDKgastAoF-97" vertex="1" connectable="0">
          <mxGeometry width="369.99999999999994" height="80" as="geometry" />
        </mxCell>
        <mxCell id="5HwcSDc_NaYDKgastAoF-99" value="" style="shape=hexagon;perimeter=hexagonPerimeter2;whiteSpace=wrap;html=1;fixedSize=1;size=20;" parent="5HwcSDc_NaYDKgastAoF-98" vertex="1">
          <mxGeometry width="369.99999999999994" height="80" as="geometry" />
        </mxCell>
        <mxCell id="5HwcSDc_NaYDKgastAoF-100" value="" style="endArrow=none;html=1;rounded=0;entryX=1;entryY=0.5;entryDx=0;entryDy=0;" parent="5HwcSDc_NaYDKgastAoF-98" target="5HwcSDc_NaYDKgastAoF-99" edge="1">
          <mxGeometry width="50" height="50" relative="1" as="geometry">
            <mxPoint y="39.860000000000014" as="sourcePoint" />
            <mxPoint x="246.66666666666663" y="39.860000000000014" as="targetPoint" />
          </mxGeometry>
        </mxCell>
        <mxCell id="5HwcSDc_NaYDKgastAoF-101" value="int cant_pasajes, int nro_vendedor, int mes" style="text;strokeColor=none;align=center;fillColor=none;html=1;verticalAlign=middle;whiteSpace=wrap;rounded=0;fontSize=12;fontFamily=Helvetica;fontColor=default;" parent="5HwcSDc_NaYDKgastAoF-98" vertex="1">
          <mxGeometry x="0.002121212121210192" y="40" width="141.83333333333334" height="30" as="geometry" />
        </mxCell>
        <mxCell id="5HwcSDc_NaYDKgastAoF-103" value="void fPuntoB" style="text;strokeColor=none;align=center;fillColor=none;html=1;verticalAlign=middle;whiteSpace=wrap;rounded=0;fontSize=12;fontFamily=Helvetica;fontColor=default;" parent="5HwcSDc_NaYDKgastAoF-98" vertex="1">
          <mxGeometry x="92.49999999999999" y="10" width="184.99999999999997" height="10" as="geometry" />
        </mxCell>
        <mxCell id="5HwcSDc_NaYDKgastAoF-114" value="int v_max[12], int vendedor_max[12]" style="text;strokeColor=none;align=center;fillColor=none;html=1;verticalAlign=middle;whiteSpace=wrap;rounded=0;" parent="5HwcSDc_NaYDKgastAoF-98" vertex="1">
          <mxGeometry x="203.5" y="40" width="74" height="30" as="geometry" />
        </mxCell>
        <mxCell id="5HwcSDc_NaYDKgastAoF-104" value="" style="endArrow=none;html=1;rounded=0;fontFamily=Helvetica;fontSize=12;fontColor=default;exitX=0.375;exitY=1;exitDx=0;exitDy=0;movable=0;resizable=0;rotatable=0;deletable=0;editable=0;locked=1;connectable=0;" parent="5HwcSDc_NaYDKgastAoF-97" source="5HwcSDc_NaYDKgastAoF-99" edge="1">
          <mxGeometry width="50" height="50" relative="1" as="geometry">
            <mxPoint x="61.66666666666666" y="100" as="sourcePoint" />
            <mxPoint x="138.75" y="40" as="targetPoint" />
          </mxGeometry>
        </mxCell>
        <mxCell id="5HwcSDc_NaYDKgastAoF-110" style="edgeStyle=orthogonalEdgeStyle;rounded=0;orthogonalLoop=1;jettySize=auto;html=1;exitX=0;exitY=0.5;exitDx=0;exitDy=0;entryX=0.5;entryY=0;entryDx=0;entryDy=0;endArrow=none;endFill=0;" parent="WIyWlLk6GJQsqaUBKTNV-1" source="5HwcSDc_NaYDKgastAoF-107" target="5HwcSDc_NaYDKgastAoF-108" edge="1">
          <mxGeometry relative="1" as="geometry" />
        </mxCell>
        <mxCell id="5HwcSDc_NaYDKgastAoF-111" style="edgeStyle=orthogonalEdgeStyle;rounded=0;orthogonalLoop=1;jettySize=auto;html=1;exitX=1;exitY=0.5;exitDx=0;exitDy=0;entryX=0.5;entryY=1;entryDx=0;entryDy=0;endArrow=none;endFill=0;" parent="WIyWlLk6GJQsqaUBKTNV-1" source="5HwcSDc_NaYDKgastAoF-107" target="5HwcSDc_NaYDKgastAoF-109" edge="1">
          <mxGeometry relative="1" as="geometry" />
        </mxCell>
        <mxCell id="5HwcSDc_NaYDKgastAoF-107" value="cant_pasajes &amp;gt; v_max[mes-1]" style="rhombus;whiteSpace=wrap;html=1;" parent="WIyWlLk6GJQsqaUBKTNV-1" vertex="1">
          <mxGeometry x="936.5" y="1820" width="140" height="80" as="geometry" />
        </mxCell>
        <mxCell id="5HwcSDc_NaYDKgastAoF-108" value="v_max[mes - 1] = cant_pasajes" style="whiteSpace=wrap;html=1;" parent="WIyWlLk6GJQsqaUBKTNV-1" vertex="1">
          <mxGeometry x="799.5" y="1900" width="150" height="30" as="geometry" />
        </mxCell>
        <mxCell id="5HwcSDc_NaYDKgastAoF-109" value="vendedor_max[mes-1] = nro_vendedor" style="whiteSpace=wrap;html=1;" parent="WIyWlLk6GJQsqaUBKTNV-1" vertex="1">
          <mxGeometry x="795" y="1940" width="163" height="30" as="geometry" />
        </mxCell>
        <mxCell id="TWiRepC6MktaTh9VeKn_-0" style="edgeStyle=orthogonalEdgeStyle;rounded=0;orthogonalLoop=1;jettySize=auto;html=1;exitX=0.5;exitY=0;exitDx=0;exitDy=0;endArrow=none;endFill=0;" parent="WIyWlLk6GJQsqaUBKTNV-1" source="5HwcSDc_NaYDKgastAoF-116" edge="1">
          <mxGeometry relative="1" as="geometry">
            <mxPoint x="1010.0769230769231" y="1990" as="targetPoint" />
          </mxGeometry>
        </mxCell>
        <mxCell id="5HwcSDc_NaYDKgastAoF-116" value="F" style="ellipse;whiteSpace=wrap;html=1;" parent="WIyWlLk6GJQsqaUBKTNV-1" vertex="1">
          <mxGeometry x="990" y="2010" width="40" height="40" as="geometry" />
        </mxCell>
        <mxCell id="TWiRepC6MktaTh9VeKn_-23" style="edgeStyle=orthogonalEdgeStyle;rounded=0;orthogonalLoop=1;jettySize=auto;html=1;exitX=0.5;exitY=0;exitDx=0;exitDy=0;entryX=0.5;entryY=0;entryDx=0;entryDy=0;endArrow=none;endFill=0;" parent="WIyWlLk6GJQsqaUBKTNV-1" source="5HwcSDc_NaYDKgastAoF-149" target="DVkl-K_QWlgrV8dKoYW--27" edge="1">
          <mxGeometry relative="1" as="geometry" />
        </mxCell>
        <mxCell id="5HwcSDc_NaYDKgastAoF-149" value="nro_cliente, cod_vuelo,dia,mes, cant_pasajes,nro_vendedor&amp;nbsp;" style="shape=trapezoid;perimeter=trapezoidPerimeter;whiteSpace=wrap;html=1;fixedSize=1;direction=west;rounded=0;" parent="WIyWlLk6GJQsqaUBKTNV-1" vertex="1">
          <mxGeometry x="923.8199999999999" y="615" width="182.37" height="60" as="geometry" />
        </mxCell>
        <mxCell id="5HwcSDc_NaYDKgastAoF-151" value="" style="group" parent="WIyWlLk6GJQsqaUBKTNV-1" vertex="1" connectable="0">
          <mxGeometry x="830" y="810" width="370" height="80" as="geometry" />
        </mxCell>
        <mxCell id="5HwcSDc_NaYDKgastAoF-152" value="" style="group;shadow=1;" parent="5HwcSDc_NaYDKgastAoF-151" vertex="1" connectable="0">
          <mxGeometry width="369.99999999999994" height="80" as="geometry" />
        </mxCell>
        <mxCell id="5HwcSDc_NaYDKgastAoF-153" value="" style="shape=hexagon;perimeter=hexagonPerimeter2;whiteSpace=wrap;html=1;fixedSize=1;size=20;" parent="5HwcSDc_NaYDKgastAoF-152" vertex="1">
          <mxGeometry width="369.99999999999994" height="80" as="geometry" />
        </mxCell>
        <mxCell id="5HwcSDc_NaYDKgastAoF-154" value="" style="endArrow=none;html=1;rounded=0;entryX=1;entryY=0.5;entryDx=0;entryDy=0;" parent="5HwcSDc_NaYDKgastAoF-152" target="5HwcSDc_NaYDKgastAoF-153" edge="1">
          <mxGeometry width="50" height="50" relative="1" as="geometry">
            <mxPoint y="39.860000000000014" as="sourcePoint" />
            <mxPoint x="246.66666666666663" y="39.860000000000014" as="targetPoint" />
          </mxGeometry>
        </mxCell>
        <mxCell id="5HwcSDc_NaYDKgastAoF-155" value="cant_pasajes,&amp;nbsp; nro_vendedor, mes" style="text;strokeColor=none;align=center;fillColor=none;html=1;verticalAlign=middle;whiteSpace=wrap;rounded=0;fontSize=12;fontFamily=Helvetica;fontColor=default;" parent="5HwcSDc_NaYDKgastAoF-152" vertex="1">
          <mxGeometry x="0.002121212121210192" y="40" width="141.83333333333334" height="30" as="geometry" />
        </mxCell>
        <mxCell id="5HwcSDc_NaYDKgastAoF-156" value="fPuntoB" style="text;strokeColor=none;align=center;fillColor=none;html=1;verticalAlign=middle;whiteSpace=wrap;rounded=0;fontSize=12;fontFamily=Helvetica;fontColor=default;" parent="5HwcSDc_NaYDKgastAoF-152" vertex="1">
          <mxGeometry x="92.49999999999999" y="10" width="184.99999999999997" height="10" as="geometry" />
        </mxCell>
        <mxCell id="5HwcSDc_NaYDKgastAoF-157" value="v_max, int vendedor_max" style="text;strokeColor=none;align=center;fillColor=none;html=1;verticalAlign=middle;whiteSpace=wrap;rounded=0;" parent="5HwcSDc_NaYDKgastAoF-152" vertex="1">
          <mxGeometry x="203.5" y="50" width="74" height="30" as="geometry" />
        </mxCell>
        <mxCell id="5HwcSDc_NaYDKgastAoF-158" value="" style="endArrow=none;html=1;rounded=0;fontFamily=Helvetica;fontSize=12;fontColor=default;exitX=0.375;exitY=1;exitDx=0;exitDy=0;movable=0;resizable=0;rotatable=0;deletable=0;editable=0;locked=1;connectable=0;" parent="5HwcSDc_NaYDKgastAoF-151" source="5HwcSDc_NaYDKgastAoF-153" edge="1">
          <mxGeometry width="50" height="50" relative="1" as="geometry">
            <mxPoint x="61.66666666666666" y="100" as="sourcePoint" />
            <mxPoint x="138.75" y="40" as="targetPoint" />
          </mxGeometry>
        </mxCell>
        <mxCell id="TWiRepC6MktaTh9VeKn_-7" style="edgeStyle=orthogonalEdgeStyle;rounded=0;orthogonalLoop=1;jettySize=auto;html=1;exitX=0.5;exitY=1;exitDx=0;exitDy=0;entryX=0.5;entryY=0;entryDx=0;entryDy=0;endArrow=none;endFill=0;" parent="WIyWlLk6GJQsqaUBKTNV-1" source="5HwcSDc_NaYDKgastAoF-167" target="5HwcSDc_NaYDKgastAoF-170" edge="1">
          <mxGeometry relative="1" as="geometry" />
        </mxCell>
        <mxCell id="5HwcSDc_NaYDKgastAoF-167" value="int v_max[12],&lt;br&gt;int vendor_max[12]" style="whiteSpace=wrap;html=1;align=center;verticalAlign=middle;horizontal=1;" parent="WIyWlLk6GJQsqaUBKTNV-1" vertex="1">
          <mxGeometry x="308.88" y="-10" width="120" height="30" as="geometry" />
        </mxCell>
        <mxCell id="5HwcSDc_NaYDKgastAoF-168" value="" style="group;shadow=1;align=center;verticalAlign=middle;horizontal=1;" parent="WIyWlLk6GJQsqaUBKTNV-1" vertex="1" connectable="0">
          <mxGeometry x="238.88" y="40" width="260" height="80" as="geometry" />
        </mxCell>
        <mxCell id="5HwcSDc_NaYDKgastAoF-170" value="" style="shape=hexagon;perimeter=hexagonPerimeter2;whiteSpace=wrap;html=1;fixedSize=1;size=20;align=center;verticalAlign=middle;horizontal=1;" parent="5HwcSDc_NaYDKgastAoF-168" vertex="1">
          <mxGeometry width="260" height="80" as="geometry" />
        </mxCell>
        <mxCell id="5HwcSDc_NaYDKgastAoF-171" value="" style="endArrow=none;html=1;rounded=0;entryX=1;entryY=0.5;entryDx=0;entryDy=0;align=center;verticalAlign=middle;horizontal=1;" parent="5HwcSDc_NaYDKgastAoF-168" target="5HwcSDc_NaYDKgastAoF-170" edge="1">
          <mxGeometry width="50" height="50" relative="1" as="geometry">
            <mxPoint y="39.860000000000014" as="sourcePoint" />
            <mxPoint x="173.33333333333331" y="39.860000000000014" as="targetPoint" />
          </mxGeometry>
        </mxCell>
        <mxCell id="5HwcSDc_NaYDKgastAoF-172" value="12" style="text;strokeColor=none;align=center;fillColor=none;html=1;verticalAlign=middle;whiteSpace=wrap;rounded=0;fontSize=12;fontFamily=Helvetica;fontColor=default;horizontal=1;" parent="5HwcSDc_NaYDKgastAoF-168" vertex="1">
          <mxGeometry x="21.666666666666664" y="40" width="86.66666666666666" height="30" as="geometry" />
        </mxCell>
        <mxCell id="5HwcSDc_NaYDKgastAoF-173" value="v_max" style="text;strokeColor=none;align=center;fillColor=none;html=1;verticalAlign=middle;whiteSpace=wrap;rounded=0;fontSize=12;fontFamily=Helvetica;fontColor=default;horizontal=1;" parent="5HwcSDc_NaYDKgastAoF-168" vertex="1">
          <mxGeometry x="108.33333333333333" y="40" width="86.66666666666666" height="30" as="geometry" />
        </mxCell>
        <mxCell id="5HwcSDc_NaYDKgastAoF-174" value="inicializarCeroEnt" style="text;strokeColor=none;align=center;fillColor=none;html=1;verticalAlign=middle;whiteSpace=wrap;rounded=0;fontSize=12;fontFamily=Helvetica;fontColor=default;horizontal=1;" parent="5HwcSDc_NaYDKgastAoF-168" vertex="1">
          <mxGeometry x="65" y="10" width="130" height="10" as="geometry" />
        </mxCell>
        <mxCell id="5HwcSDc_NaYDKgastAoF-175" value="" style="endArrow=none;html=1;rounded=0;exitX=0.415;exitY=0.995;exitDx=0;exitDy=0;exitPerimeter=0;align=center;verticalAlign=middle;horizontal=1;" parent="5HwcSDc_NaYDKgastAoF-168" source="5HwcSDc_NaYDKgastAoF-170" edge="1">
          <mxGeometry width="50" height="50" relative="1" as="geometry">
            <mxPoint x="125.16000000000003" y="60" as="sourcePoint" />
            <mxPoint x="108.32952380952389" y="40" as="targetPoint" />
          </mxGeometry>
        </mxCell>
        <mxCell id="5HwcSDc_NaYDKgastAoF-176" value="" style="group;shadow=1;align=center;verticalAlign=middle;horizontal=1;" parent="WIyWlLk6GJQsqaUBKTNV-1" vertex="1" connectable="0">
          <mxGeometry x="238.88" y="140" width="260" height="80" as="geometry" />
        </mxCell>
        <mxCell id="5HwcSDc_NaYDKgastAoF-177" value="" style="shape=hexagon;perimeter=hexagonPerimeter2;whiteSpace=wrap;html=1;fixedSize=1;size=20;align=center;verticalAlign=middle;horizontal=1;" parent="5HwcSDc_NaYDKgastAoF-176" vertex="1">
          <mxGeometry width="260" height="80" as="geometry" />
        </mxCell>
        <mxCell id="5HwcSDc_NaYDKgastAoF-178" value="" style="endArrow=none;html=1;rounded=0;entryX=1;entryY=0.5;entryDx=0;entryDy=0;align=center;verticalAlign=middle;horizontal=1;" parent="5HwcSDc_NaYDKgastAoF-176" target="5HwcSDc_NaYDKgastAoF-177" edge="1">
          <mxGeometry width="50" height="50" relative="1" as="geometry">
            <mxPoint y="39.860000000000014" as="sourcePoint" />
            <mxPoint x="173.33333333333331" y="39.860000000000014" as="targetPoint" />
          </mxGeometry>
        </mxCell>
        <mxCell id="5HwcSDc_NaYDKgastAoF-179" value="12" style="text;strokeColor=none;align=center;fillColor=none;html=1;verticalAlign=middle;whiteSpace=wrap;rounded=0;fontSize=12;fontFamily=Helvetica;fontColor=default;horizontal=1;" parent="5HwcSDc_NaYDKgastAoF-176" vertex="1">
          <mxGeometry x="21.666666666666664" y="40" width="86.66666666666666" height="30" as="geometry" />
        </mxCell>
        <mxCell id="5HwcSDc_NaYDKgastAoF-180" value="vendedor_max" style="text;strokeColor=none;align=center;fillColor=none;html=1;verticalAlign=middle;whiteSpace=wrap;rounded=0;fontSize=12;fontFamily=Helvetica;fontColor=default;horizontal=1;" parent="5HwcSDc_NaYDKgastAoF-176" vertex="1">
          <mxGeometry x="120.00333333333333" y="40" width="86.66666666666666" height="30" as="geometry" />
        </mxCell>
        <mxCell id="5HwcSDc_NaYDKgastAoF-181" value="inicializarCeroEnt" style="text;strokeColor=none;align=center;fillColor=none;html=1;verticalAlign=middle;whiteSpace=wrap;rounded=0;fontSize=12;fontFamily=Helvetica;fontColor=default;horizontal=1;" parent="5HwcSDc_NaYDKgastAoF-176" vertex="1">
          <mxGeometry x="65" y="10" width="130" height="10" as="geometry" />
        </mxCell>
        <mxCell id="5HwcSDc_NaYDKgastAoF-182" value="" style="endArrow=none;html=1;rounded=0;exitX=0.415;exitY=0.995;exitDx=0;exitDy=0;exitPerimeter=0;align=center;verticalAlign=middle;horizontal=1;" parent="5HwcSDc_NaYDKgastAoF-176" source="5HwcSDc_NaYDKgastAoF-177" edge="1">
          <mxGeometry width="50" height="50" relative="1" as="geometry">
            <mxPoint x="125.16000000000003" y="60" as="sourcePoint" />
            <mxPoint x="108.32952380952389" y="40" as="targetPoint" />
          </mxGeometry>
        </mxCell>
        <mxCell id="5HwcSDc_NaYDKgastAoF-183" value="" style="group;strokeColor=none;fillColor=none;shadow=0;labelBackgroundColor=none;labelBorderColor=none;" parent="WIyWlLk6GJQsqaUBKTNV-1" vertex="1" connectable="0">
          <mxGeometry x="881.19" y="2090" width="260" height="80" as="geometry" />
        </mxCell>
        <mxCell id="5HwcSDc_NaYDKgastAoF-184" value="" style="group;shadow=1;" parent="5HwcSDc_NaYDKgastAoF-183" vertex="1" connectable="0">
          <mxGeometry width="260" height="80" as="geometry" />
        </mxCell>
        <mxCell id="5HwcSDc_NaYDKgastAoF-185" value="" style="shape=hexagon;perimeter=hexagonPerimeter2;whiteSpace=wrap;html=1;fixedSize=1;size=20;" parent="5HwcSDc_NaYDKgastAoF-184" vertex="1">
          <mxGeometry width="260" height="80" as="geometry" />
        </mxCell>
        <mxCell id="5HwcSDc_NaYDKgastAoF-186" value="" style="endArrow=none;html=1;rounded=0;entryX=1;entryY=0.5;entryDx=0;entryDy=0;" parent="5HwcSDc_NaYDKgastAoF-184" target="5HwcSDc_NaYDKgastAoF-185" edge="1">
          <mxGeometry width="50" height="50" relative="1" as="geometry">
            <mxPoint y="39.860000000000014" as="sourcePoint" />
            <mxPoint x="173.33333333333331" y="39.860000000000014" as="targetPoint" />
          </mxGeometry>
        </mxCell>
        <mxCell id="5HwcSDc_NaYDKgastAoF-187" value="int tamaño" style="text;strokeColor=none;align=center;fillColor=none;html=1;verticalAlign=middle;whiteSpace=wrap;rounded=0;fontSize=12;fontFamily=Helvetica;fontColor=default;" parent="5HwcSDc_NaYDKgastAoF-184" vertex="1">
          <mxGeometry x="8.806666666666665" y="40" width="86.66666666666666" height="30" as="geometry" />
        </mxCell>
        <mxCell id="5HwcSDc_NaYDKgastAoF-188" value="int v[]" style="text;strokeColor=none;align=center;fillColor=none;html=1;verticalAlign=middle;whiteSpace=wrap;rounded=0;fontSize=12;fontFamily=Helvetica;fontColor=default;" parent="5HwcSDc_NaYDKgastAoF-184" vertex="1">
          <mxGeometry x="115.00333333333333" y="40" width="86.66666666666666" height="30" as="geometry" />
        </mxCell>
        <mxCell id="5HwcSDc_NaYDKgastAoF-189" value="void recorrerVec" style="text;strokeColor=none;align=center;fillColor=none;html=1;verticalAlign=middle;whiteSpace=wrap;rounded=0;fontSize=12;fontFamily=Helvetica;fontColor=default;" parent="5HwcSDc_NaYDKgastAoF-184" vertex="1">
          <mxGeometry x="65" y="10" width="130" height="10" as="geometry" />
        </mxCell>
        <mxCell id="5HwcSDc_NaYDKgastAoF-190" value="" style="endArrow=none;html=1;rounded=0;fontFamily=Helvetica;fontSize=12;fontColor=default;exitX=0.375;exitY=1;exitDx=0;exitDy=0;movable=0;resizable=0;rotatable=0;deletable=0;editable=0;locked=1;connectable=0;" parent="5HwcSDc_NaYDKgastAoF-183" source="5HwcSDc_NaYDKgastAoF-185" edge="1">
          <mxGeometry width="50" height="50" relative="1" as="geometry">
            <mxPoint x="43.33333333333333" y="100" as="sourcePoint" />
            <mxPoint x="97.5" y="40" as="targetPoint" />
          </mxGeometry>
        </mxCell>
        <mxCell id="TWiRepC6MktaTh9VeKn_-31" style="edgeStyle=orthogonalEdgeStyle;rounded=0;orthogonalLoop=1;jettySize=auto;html=1;exitX=0.5;exitY=1;exitDx=0;exitDy=0;entryX=0.5;entryY=0;entryDx=0;entryDy=0;endArrow=none;endFill=0;" parent="WIyWlLk6GJQsqaUBKTNV-1" source="5HwcSDc_NaYDKgastAoF-191" target="TWiRepC6MktaTh9VeKn_-30" edge="1">
          <mxGeometry relative="1" as="geometry" />
        </mxCell>
        <mxCell id="5HwcSDc_NaYDKgastAoF-191" value="int x=0;x&amp;lt;tam;x++" style="swimlane;horizontal=0;whiteSpace=wrap;html=1;" parent="WIyWlLk6GJQsqaUBKTNV-1" vertex="1">
          <mxGeometry x="920" y="2200" width="170" height="120" as="geometry" />
        </mxCell>
        <mxCell id="5HwcSDc_NaYDKgastAoF-192" value="v[x]" style="shape=trapezoid;perimeter=trapezoidPerimeter;whiteSpace=wrap;html=1;fixedSize=1;" parent="5HwcSDc_NaYDKgastAoF-191" vertex="1">
          <mxGeometry x="34.989999999999995" y="20" width="120" height="40" as="geometry" />
        </mxCell>
        <mxCell id="5HwcSDc_NaYDKgastAoF-195" value="" style="group;align=center;verticalAlign=middle;horizontal=1;" parent="WIyWlLk6GJQsqaUBKTNV-1" vertex="1" connectable="0">
          <mxGeometry x="232.51" y="730" width="260" height="80" as="geometry" />
        </mxCell>
        <mxCell id="5HwcSDc_NaYDKgastAoF-196" value="" style="group;shadow=1;align=center;verticalAlign=middle;horizontal=1;" parent="5HwcSDc_NaYDKgastAoF-195" vertex="1" connectable="0">
          <mxGeometry width="260" height="80" as="geometry" />
        </mxCell>
        <mxCell id="5HwcSDc_NaYDKgastAoF-197" value="" style="shape=hexagon;perimeter=hexagonPerimeter2;whiteSpace=wrap;html=1;fixedSize=1;size=20;align=center;verticalAlign=middle;horizontal=1;" parent="5HwcSDc_NaYDKgastAoF-196" vertex="1">
          <mxGeometry width="260" height="80" as="geometry" />
        </mxCell>
        <mxCell id="5HwcSDc_NaYDKgastAoF-198" value="" style="endArrow=none;html=1;rounded=0;entryX=1;entryY=0.5;entryDx=0;entryDy=0;align=center;verticalAlign=middle;horizontal=1;" parent="5HwcSDc_NaYDKgastAoF-196" target="5HwcSDc_NaYDKgastAoF-197" edge="1">
          <mxGeometry width="50" height="50" relative="1" as="geometry">
            <mxPoint y="39.860000000000014" as="sourcePoint" />
            <mxPoint x="173.33333333333331" y="39.860000000000014" as="targetPoint" />
          </mxGeometry>
        </mxCell>
        <mxCell id="5HwcSDc_NaYDKgastAoF-199" value="12" style="text;strokeColor=none;align=center;fillColor=none;html=1;verticalAlign=middle;whiteSpace=wrap;rounded=0;fontSize=12;fontFamily=Helvetica;fontColor=default;horizontal=1;" parent="5HwcSDc_NaYDKgastAoF-196" vertex="1">
          <mxGeometry x="21.666666666666664" y="40" width="86.66666666666666" height="30" as="geometry" />
        </mxCell>
        <mxCell id="5HwcSDc_NaYDKgastAoF-200" value="vendedor_max" style="text;strokeColor=none;align=center;fillColor=none;html=1;verticalAlign=middle;whiteSpace=wrap;rounded=0;fontSize=12;fontFamily=Helvetica;fontColor=default;horizontal=1;" parent="5HwcSDc_NaYDKgastAoF-196" vertex="1">
          <mxGeometry x="115.00333333333333" y="40" width="86.66666666666666" height="30" as="geometry" />
        </mxCell>
        <mxCell id="5HwcSDc_NaYDKgastAoF-201" value="recorrerVec" style="text;strokeColor=none;align=center;fillColor=none;html=1;verticalAlign=middle;whiteSpace=wrap;rounded=0;fontSize=12;fontFamily=Helvetica;fontColor=default;horizontal=1;" parent="5HwcSDc_NaYDKgastAoF-196" vertex="1">
          <mxGeometry x="65" y="10" width="130" height="10" as="geometry" />
        </mxCell>
        <mxCell id="5HwcSDc_NaYDKgastAoF-202" value="" style="endArrow=none;html=1;rounded=0;fontFamily=Helvetica;fontSize=12;fontColor=default;exitX=0.375;exitY=1;exitDx=0;exitDy=0;movable=0;resizable=0;rotatable=0;deletable=0;editable=0;locked=1;connectable=0;" parent="5HwcSDc_NaYDKgastAoF-195" source="5HwcSDc_NaYDKgastAoF-197" edge="1">
          <mxGeometry width="50" height="50" relative="1" as="geometry">
            <mxPoint x="43.33333333333333" y="100" as="sourcePoint" />
            <mxPoint x="97.5" y="40" as="targetPoint" />
          </mxGeometry>
        </mxCell>
        <mxCell id="TWiRepC6MktaTh9VeKn_-12" style="edgeStyle=orthogonalEdgeStyle;rounded=0;orthogonalLoop=1;jettySize=auto;html=1;exitX=0.5;exitY=1;exitDx=0;exitDy=0;entryX=0.5;entryY=0;entryDx=0;entryDy=0;endArrow=none;endFill=0;" parent="WIyWlLk6GJQsqaUBKTNV-1" source="5HwcSDc_NaYDKgastAoF-204" target="5HwcSDc_NaYDKgastAoF-197" edge="1">
          <mxGeometry relative="1" as="geometry" />
        </mxCell>
        <mxCell id="5HwcSDc_NaYDKgastAoF-204" value="&quot;Vendedor con max ventas:&quot;" style="shape=trapezoid;perimeter=trapezoidPerimeter;whiteSpace=wrap;html=1;fixedSize=1;align=center;verticalAlign=middle;horizontal=1;" parent="WIyWlLk6GJQsqaUBKTNV-1" vertex="1">
          <mxGeometry x="268.76" y="660" width="187.5" height="50" as="geometry" />
        </mxCell>
        <mxCell id="Q7ZwfQS1Ow84zQC6xGds-0" value="" style="group" parent="WIyWlLk6GJQsqaUBKTNV-1" vertex="1" connectable="0">
          <mxGeometry x="881.19" y="-240" width="260" height="80" as="geometry" />
        </mxCell>
        <mxCell id="Q7ZwfQS1Ow84zQC6xGds-1" value="" style="group;shadow=1;" parent="Q7ZwfQS1Ow84zQC6xGds-0" vertex="1" connectable="0">
          <mxGeometry width="260" height="80" as="geometry" />
        </mxCell>
        <mxCell id="Q7ZwfQS1Ow84zQC6xGds-3" value="" style="shape=hexagon;perimeter=hexagonPerimeter2;whiteSpace=wrap;html=1;fixedSize=1;size=20;" parent="Q7ZwfQS1Ow84zQC6xGds-1" vertex="1">
          <mxGeometry width="260" height="80" as="geometry" />
        </mxCell>
        <mxCell id="Q7ZwfQS1Ow84zQC6xGds-4" value="" style="endArrow=none;html=1;rounded=0;entryX=1;entryY=0.5;entryDx=0;entryDy=0;" parent="Q7ZwfQS1Ow84zQC6xGds-1" target="Q7ZwfQS1Ow84zQC6xGds-3" edge="1">
          <mxGeometry width="50" height="50" relative="1" as="geometry">
            <mxPoint y="39.860000000000014" as="sourcePoint" />
            <mxPoint x="173.33333333333331" y="39.860000000000014" as="targetPoint" />
          </mxGeometry>
        </mxCell>
        <mxCell id="Q7ZwfQS1Ow84zQC6xGds-5" value="int x" style="text;strokeColor=none;align=center;fillColor=none;html=1;verticalAlign=middle;whiteSpace=wrap;rounded=0;fontSize=12;fontFamily=Helvetica;fontColor=default;" parent="Q7ZwfQS1Ow84zQC6xGds-1" vertex="1">
          <mxGeometry x="21.666666666666664" y="40" width="86.66666666666666" height="30" as="geometry" />
        </mxCell>
        <mxCell id="Q7ZwfQS1Ow84zQC6xGds-6" value="float vec[]" style="text;strokeColor=none;align=center;fillColor=none;html=1;verticalAlign=middle;whiteSpace=wrap;rounded=0;fontSize=12;fontFamily=Helvetica;fontColor=default;" parent="Q7ZwfQS1Ow84zQC6xGds-1" vertex="1">
          <mxGeometry x="108.33333333333333" y="40" width="86.66666666666666" height="30" as="geometry" />
        </mxCell>
        <mxCell id="Q7ZwfQS1Ow84zQC6xGds-7" value="void inicializarCero" style="text;strokeColor=none;align=center;fillColor=none;html=1;verticalAlign=middle;whiteSpace=wrap;rounded=0;fontSize=12;fontFamily=Helvetica;fontColor=default;" parent="Q7ZwfQS1Ow84zQC6xGds-1" vertex="1">
          <mxGeometry x="65" y="10" width="130" height="10" as="geometry" />
        </mxCell>
        <mxCell id="Q7ZwfQS1Ow84zQC6xGds-8" value="" style="endArrow=none;html=1;rounded=0;fontFamily=Helvetica;fontSize=12;fontColor=default;exitX=0.375;exitY=1;exitDx=0;exitDy=0;movable=0;resizable=0;rotatable=0;deletable=0;editable=0;locked=1;connectable=0;" parent="Q7ZwfQS1Ow84zQC6xGds-0" source="Q7ZwfQS1Ow84zQC6xGds-3" edge="1">
          <mxGeometry width="50" height="50" relative="1" as="geometry">
            <mxPoint x="43.33333333333333" y="100" as="sourcePoint" />
            <mxPoint x="97.5" y="40" as="targetPoint" />
          </mxGeometry>
        </mxCell>
        <mxCell id="TWiRepC6MktaTh9VeKn_-18" style="edgeStyle=orthogonalEdgeStyle;rounded=0;orthogonalLoop=1;jettySize=auto;html=1;exitX=0.5;exitY=1;exitDx=0;exitDy=0;endArrow=none;endFill=0;" parent="WIyWlLk6GJQsqaUBKTNV-1" source="Q7ZwfQS1Ow84zQC6xGds-10" target="Q7ZwfQS1Ow84zQC6xGds-12" edge="1">
          <mxGeometry relative="1" as="geometry" />
        </mxCell>
        <mxCell id="Q7ZwfQS1Ow84zQC6xGds-10" value="int i=0:i&amp;lt;x;i++" style="swimlane;horizontal=0;whiteSpace=wrap;html=1;" parent="WIyWlLk6GJQsqaUBKTNV-1" vertex="1">
          <mxGeometry x="881.19" y="-140" width="260" height="60" as="geometry" />
        </mxCell>
        <mxCell id="Q7ZwfQS1Ow84zQC6xGds-11" value="vec[i] = 0" style="whiteSpace=wrap;html=1;" parent="Q7ZwfQS1Ow84zQC6xGds-10" vertex="1">
          <mxGeometry x="79.99999999999996" y="10" width="120" height="40" as="geometry" />
        </mxCell>
        <mxCell id="Q7ZwfQS1Ow84zQC6xGds-12" value="F" style="ellipse;whiteSpace=wrap;html=1;" parent="WIyWlLk6GJQsqaUBKTNV-1" vertex="1">
          <mxGeometry x="991.19" y="-60" width="40" height="40" as="geometry" />
        </mxCell>
        <mxCell id="Q7ZwfQS1Ow84zQC6xGds-13" value="" style="group" parent="WIyWlLk6GJQsqaUBKTNV-1" vertex="1" connectable="0">
          <mxGeometry x="881.19" y="-480" width="260" height="80" as="geometry" />
        </mxCell>
        <mxCell id="Q7ZwfQS1Ow84zQC6xGds-14" value="" style="group;shadow=1;" parent="Q7ZwfQS1Ow84zQC6xGds-13" vertex="1" connectable="0">
          <mxGeometry width="260" height="80" as="geometry" />
        </mxCell>
        <mxCell id="Q7ZwfQS1Ow84zQC6xGds-16" value="" style="shape=hexagon;perimeter=hexagonPerimeter2;whiteSpace=wrap;html=1;fixedSize=1;size=20;" parent="Q7ZwfQS1Ow84zQC6xGds-14" vertex="1">
          <mxGeometry width="260" height="80" as="geometry" />
        </mxCell>
        <mxCell id="Q7ZwfQS1Ow84zQC6xGds-17" value="" style="endArrow=none;html=1;rounded=0;entryX=1;entryY=0.5;entryDx=0;entryDy=0;" parent="Q7ZwfQS1Ow84zQC6xGds-14" target="Q7ZwfQS1Ow84zQC6xGds-16" edge="1">
          <mxGeometry width="50" height="50" relative="1" as="geometry">
            <mxPoint y="39.860000000000014" as="sourcePoint" />
            <mxPoint x="173.33333333333331" y="39.860000000000014" as="targetPoint" />
          </mxGeometry>
        </mxCell>
        <mxCell id="Q7ZwfQS1Ow84zQC6xGds-18" value="int x" style="text;strokeColor=none;align=center;fillColor=none;html=1;verticalAlign=middle;whiteSpace=wrap;rounded=0;fontSize=12;fontFamily=Helvetica;fontColor=default;" parent="Q7ZwfQS1Ow84zQC6xGds-14" vertex="1">
          <mxGeometry x="21.666666666666664" y="40" width="86.66666666666666" height="30" as="geometry" />
        </mxCell>
        <mxCell id="Q7ZwfQS1Ow84zQC6xGds-19" value="int vec[]" style="text;strokeColor=none;align=center;fillColor=none;html=1;verticalAlign=middle;whiteSpace=wrap;rounded=0;fontSize=12;fontFamily=Helvetica;fontColor=default;" parent="Q7ZwfQS1Ow84zQC6xGds-14" vertex="1">
          <mxGeometry x="108.33333333333333" y="40" width="86.66666666666666" height="30" as="geometry" />
        </mxCell>
        <mxCell id="Q7ZwfQS1Ow84zQC6xGds-20" value="void inicializarCeroEnt" style="text;strokeColor=none;align=center;fillColor=none;html=1;verticalAlign=middle;whiteSpace=wrap;rounded=0;fontSize=12;fontFamily=Helvetica;fontColor=default;" parent="Q7ZwfQS1Ow84zQC6xGds-14" vertex="1">
          <mxGeometry x="65" y="10" width="130" height="10" as="geometry" />
        </mxCell>
        <mxCell id="Q7ZwfQS1Ow84zQC6xGds-21" value="" style="endArrow=none;html=1;rounded=0;fontFamily=Helvetica;fontSize=12;fontColor=default;exitX=0.375;exitY=1;exitDx=0;exitDy=0;movable=0;resizable=0;rotatable=0;deletable=0;editable=0;locked=1;connectable=0;" parent="Q7ZwfQS1Ow84zQC6xGds-13" source="Q7ZwfQS1Ow84zQC6xGds-16" edge="1">
          <mxGeometry width="50" height="50" relative="1" as="geometry">
            <mxPoint x="43.33333333333333" y="100" as="sourcePoint" />
            <mxPoint x="97.5" y="40" as="targetPoint" />
          </mxGeometry>
        </mxCell>
        <mxCell id="TWiRepC6MktaTh9VeKn_-15" style="edgeStyle=orthogonalEdgeStyle;rounded=0;orthogonalLoop=1;jettySize=auto;html=1;exitX=0.5;exitY=1;exitDx=0;exitDy=0;entryX=0.5;entryY=0;entryDx=0;entryDy=0;endArrow=none;endFill=0;" parent="WIyWlLk6GJQsqaUBKTNV-1" source="Q7ZwfQS1Ow84zQC6xGds-23" target="Q7ZwfQS1Ow84zQC6xGds-25" edge="1">
          <mxGeometry relative="1" as="geometry" />
        </mxCell>
        <mxCell id="Q7ZwfQS1Ow84zQC6xGds-23" value="int i=0:i&amp;lt;x;i++" style="swimlane;horizontal=0;whiteSpace=wrap;html=1;" parent="WIyWlLk6GJQsqaUBKTNV-1" vertex="1">
          <mxGeometry x="881.19" y="-380" width="260" height="60" as="geometry" />
        </mxCell>
        <mxCell id="Q7ZwfQS1Ow84zQC6xGds-24" value="vec[i] = 0" style="whiteSpace=wrap;html=1;" parent="Q7ZwfQS1Ow84zQC6xGds-23" vertex="1">
          <mxGeometry x="79.99999999999996" y="10" width="120" height="40" as="geometry" />
        </mxCell>
        <mxCell id="Q7ZwfQS1Ow84zQC6xGds-25" value="F" style="ellipse;whiteSpace=wrap;html=1;" parent="WIyWlLk6GJQsqaUBKTNV-1" vertex="1">
          <mxGeometry x="991.19" y="-300" width="40" height="40" as="geometry" />
        </mxCell>
        <mxCell id="TWiRepC6MktaTh9VeKn_-3" style="edgeStyle=orthogonalEdgeStyle;rounded=0;orthogonalLoop=1;jettySize=auto;html=1;exitX=0.5;exitY=1;exitDx=0;exitDy=0;entryX=0.5;entryY=0;entryDx=0;entryDy=0;endArrow=none;endFill=0;" parent="WIyWlLk6GJQsqaUBKTNV-1" source="dhuMwqZpVVbvkbiRmmKU-67" target="5HwcSDc_NaYDKgastAoF-30" edge="1">
          <mxGeometry relative="1" as="geometry" />
        </mxCell>
        <mxCell id="TWiRepC6MktaTh9VeKn_-6" style="edgeStyle=orthogonalEdgeStyle;rounded=0;orthogonalLoop=1;jettySize=auto;html=1;exitX=0.5;exitY=1;exitDx=0;exitDy=0;entryX=0.5;entryY=0;entryDx=0;entryDy=0;endArrow=none;endFill=0;" parent="WIyWlLk6GJQsqaUBKTNV-1" source="5HwcSDc_NaYDKgastAoF-33" target="5HwcSDc_NaYDKgastAoF-167" edge="1">
          <mxGeometry relative="1" as="geometry" />
        </mxCell>
        <mxCell id="TWiRepC6MktaTh9VeKn_-8" style="edgeStyle=orthogonalEdgeStyle;rounded=0;orthogonalLoop=1;jettySize=auto;html=1;exitX=0.5;exitY=1;exitDx=0;exitDy=0;entryX=0.5;entryY=0;entryDx=0;entryDy=0;endArrow=none;endFill=0;" parent="WIyWlLk6GJQsqaUBKTNV-1" source="5HwcSDc_NaYDKgastAoF-170" target="5HwcSDc_NaYDKgastAoF-177" edge="1">
          <mxGeometry relative="1" as="geometry" />
        </mxCell>
        <mxCell id="TWiRepC6MktaTh9VeKn_-10" style="edgeStyle=orthogonalEdgeStyle;rounded=0;orthogonalLoop=1;jettySize=auto;html=1;exitX=0.5;exitY=1;exitDx=0;exitDy=0;entryX=0.5;entryY=0;entryDx=0;entryDy=0;endArrow=none;endFill=0;" parent="WIyWlLk6GJQsqaUBKTNV-1" source="dhuMwqZpVVbvkbiRmmKU-79" target="5HwcSDc_NaYDKgastAoF-83" edge="1">
          <mxGeometry relative="1" as="geometry" />
        </mxCell>
        <mxCell id="TWiRepC6MktaTh9VeKn_-11" style="edgeStyle=orthogonalEdgeStyle;rounded=0;orthogonalLoop=1;jettySize=auto;html=1;exitX=0.5;exitY=1;exitDx=0;exitDy=0;entryX=0.5;entryY=0;entryDx=0;entryDy=0;endArrow=none;endFill=0;" parent="WIyWlLk6GJQsqaUBKTNV-1" source="5HwcSDc_NaYDKgastAoF-83" target="5HwcSDc_NaYDKgastAoF-204" edge="1">
          <mxGeometry relative="1" as="geometry" />
        </mxCell>
        <mxCell id="TWiRepC6MktaTh9VeKn_-14" style="edgeStyle=orthogonalEdgeStyle;rounded=0;orthogonalLoop=1;jettySize=auto;html=1;exitX=0.5;exitY=1;exitDx=0;exitDy=0;entryX=0.5;entryY=0;entryDx=0;entryDy=0;endArrow=none;endFill=0;" parent="WIyWlLk6GJQsqaUBKTNV-1" source="Q7ZwfQS1Ow84zQC6xGds-16" target="Q7ZwfQS1Ow84zQC6xGds-23" edge="1">
          <mxGeometry relative="1" as="geometry" />
        </mxCell>
        <mxCell id="TWiRepC6MktaTh9VeKn_-17" style="edgeStyle=orthogonalEdgeStyle;rounded=0;orthogonalLoop=1;jettySize=auto;html=1;exitX=0.5;exitY=1;exitDx=0;exitDy=0;entryX=0.5;entryY=0;entryDx=0;entryDy=0;endArrow=none;endFill=0;" parent="WIyWlLk6GJQsqaUBKTNV-1" source="Q7ZwfQS1Ow84zQC6xGds-3" target="Q7ZwfQS1Ow84zQC6xGds-10" edge="1">
          <mxGeometry relative="1" as="geometry" />
        </mxCell>
        <mxCell id="TWiRepC6MktaTh9VeKn_-19" style="edgeStyle=orthogonalEdgeStyle;rounded=0;orthogonalLoop=1;jettySize=auto;html=1;exitX=0.5;exitY=1;exitDx=0;exitDy=0;entryX=0.5;entryY=0;entryDx=0;entryDy=0;endArrow=none;endFill=0;" parent="WIyWlLk6GJQsqaUBKTNV-1" source="dhuMwqZpVVbvkbiRmmKU-26" target="DVkl-K_QWlgrV8dKoYW--13" edge="1">
          <mxGeometry relative="1" as="geometry" />
        </mxCell>
        <mxCell id="TWiRepC6MktaTh9VeKn_-24" style="edgeStyle=orthogonalEdgeStyle;rounded=0;orthogonalLoop=1;jettySize=auto;html=1;exitX=0.5;exitY=1;exitDx=0;exitDy=0;entryX=0.5;entryY=1;entryDx=0;entryDy=0;" parent="WIyWlLk6GJQsqaUBKTNV-1" source="dhuMwqZpVVbvkbiRmmKU-35" target="5HwcSDc_NaYDKgastAoF-149" edge="1">
          <mxGeometry relative="1" as="geometry" />
        </mxCell>
        <mxCell id="TWiRepC6MktaTh9VeKn_-25" style="edgeStyle=orthogonalEdgeStyle;rounded=0;orthogonalLoop=1;jettySize=auto;html=1;exitX=0.5;exitY=1;exitDx=0;exitDy=0;entryX=0.541;entryY=-0.004;entryDx=0;entryDy=0;entryPerimeter=0;endArrow=none;endFill=0;" parent="WIyWlLk6GJQsqaUBKTNV-1" source="5HwcSDc_NaYDKgastAoF-150" target="5HwcSDc_NaYDKgastAoF-153" edge="1">
          <mxGeometry relative="1" as="geometry" />
        </mxCell>
        <mxCell id="TWiRepC6MktaTh9VeKn_-28" value="" style="edgeStyle=orthogonalEdgeStyle;rounded=0;orthogonalLoop=1;jettySize=auto;html=1;endArrow=none;endFill=0;" parent="WIyWlLk6GJQsqaUBKTNV-1" source="5HwcSDc_NaYDKgastAoF-99" target="5HwcSDc_NaYDKgastAoF-107" edge="1">
          <mxGeometry relative="1" as="geometry" />
        </mxCell>
        <mxCell id="TWiRepC6MktaTh9VeKn_-29" style="edgeStyle=orthogonalEdgeStyle;rounded=0;orthogonalLoop=1;jettySize=auto;html=1;exitX=0.5;exitY=1;exitDx=0;exitDy=0;entryX=0.5;entryY=0;entryDx=0;entryDy=0;endArrow=none;endFill=0;" parent="WIyWlLk6GJQsqaUBKTNV-1" source="5HwcSDc_NaYDKgastAoF-185" target="5HwcSDc_NaYDKgastAoF-191" edge="1">
          <mxGeometry relative="1" as="geometry" />
        </mxCell>
        <mxCell id="TWiRepC6MktaTh9VeKn_-30" value="F" style="ellipse;whiteSpace=wrap;html=1;" parent="WIyWlLk6GJQsqaUBKTNV-1" vertex="1">
          <mxGeometry x="976.5" y="2340" width="60" height="60" as="geometry" />
        </mxCell>
        <mxCell id="TWiRepC6MktaTh9VeKn_-33" value="F" style="ellipse;whiteSpace=wrap;html=1;" parent="WIyWlLk6GJQsqaUBKTNV-1" vertex="1">
          <mxGeometry x="330" y="1140" width="60" height="60" as="geometry" />
        </mxCell>
        <mxCell id="KrHRzH38c8H_ezdimAqq-0" value="" style="group" parent="WIyWlLk6GJQsqaUBKTNV-1" vertex="1" connectable="0">
          <mxGeometry x="800" y="2440" width="420" height="80" as="geometry" />
        </mxCell>
        <mxCell id="KrHRzH38c8H_ezdimAqq-1" value="" style="group;shadow=1;" parent="KrHRzH38c8H_ezdimAqq-0" vertex="1" connectable="0">
          <mxGeometry width="420" height="80" as="geometry" />
        </mxCell>
        <mxCell id="KrHRzH38c8H_ezdimAqq-2" value="" style="shape=hexagon;perimeter=hexagonPerimeter2;whiteSpace=wrap;html=1;fixedSize=1;size=20;" parent="KrHRzH38c8H_ezdimAqq-1" vertex="1">
          <mxGeometry width="420" height="80" as="geometry" />
        </mxCell>
        <mxCell id="KrHRzH38c8H_ezdimAqq-3" value="" style="endArrow=none;html=1;rounded=0;entryX=1;entryY=0.5;entryDx=0;entryDy=0;" parent="KrHRzH38c8H_ezdimAqq-1" target="KrHRzH38c8H_ezdimAqq-2" edge="1">
          <mxGeometry width="50" height="50" relative="1" as="geometry">
            <mxPoint y="39.860000000000014" as="sourcePoint" />
            <mxPoint x="279.99999999999994" y="39.860000000000014" as="targetPoint" />
          </mxGeometry>
        </mxCell>
        <mxCell id="KrHRzH38c8H_ezdimAqq-4" value="int cant_pasajes, int nro_vendedor, cod_vuelo" style="text;strokeColor=none;align=center;fillColor=none;html=1;verticalAlign=middle;whiteSpace=wrap;rounded=0;fontSize=12;fontFamily=Helvetica;fontColor=default;" parent="KrHRzH38c8H_ezdimAqq-1" vertex="1">
          <mxGeometry x="18.801791044776117" y="40" width="139.99999999999997" height="30" as="geometry" />
        </mxCell>
        <mxCell id="KrHRzH38c8H_ezdimAqq-5" value="float v[8], float v_costo[50]" style="text;strokeColor=none;align=center;fillColor=none;html=1;verticalAlign=middle;whiteSpace=wrap;rounded=0;fontSize=12;fontFamily=Helvetica;fontColor=default;" parent="KrHRzH38c8H_ezdimAqq-1" vertex="1">
          <mxGeometry x="194.32552491778395" y="40" width="139.99999999999997" height="30" as="geometry" />
        </mxCell>
        <mxCell id="KrHRzH38c8H_ezdimAqq-6" value="void recaucionVendedor" style="text;strokeColor=none;align=center;fillColor=none;html=1;verticalAlign=middle;whiteSpace=wrap;rounded=0;fontSize=12;fontFamily=Helvetica;fontColor=default;" parent="KrHRzH38c8H_ezdimAqq-1" vertex="1">
          <mxGeometry x="105" y="10" width="210" height="10" as="geometry" />
        </mxCell>
        <mxCell id="KrHRzH38c8H_ezdimAqq-7" value="" style="endArrow=none;html=1;rounded=0;fontFamily=Helvetica;fontSize=12;fontColor=default;exitX=0.375;exitY=1;exitDx=0;exitDy=0;movable=0;resizable=0;rotatable=0;deletable=0;editable=0;locked=1;connectable=0;" parent="KrHRzH38c8H_ezdimAqq-0" source="KrHRzH38c8H_ezdimAqq-2" edge="1">
          <mxGeometry width="50" height="50" relative="1" as="geometry">
            <mxPoint x="69.99999999999999" y="100" as="sourcePoint" />
            <mxPoint x="157.50000000000003" y="40" as="targetPoint" />
          </mxGeometry>
        </mxCell>
        <mxCell id="KrHRzH38c8H_ezdimAqq-8" value="float recaudacionVendedor[8]" style="whiteSpace=wrap;html=1;" parent="WIyWlLk6GJQsqaUBKTNV-1" vertex="1">
          <mxGeometry x="288.3" y="250" width="161.13" height="30" as="geometry" />
        </mxCell>
        <mxCell id="KrHRzH38c8H_ezdimAqq-9" value="" style="group;shadow=1;align=center;verticalAlign=middle;horizontal=1;" parent="WIyWlLk6GJQsqaUBKTNV-1" vertex="1" connectable="0">
          <mxGeometry x="232.5" y="300" width="260" height="80" as="geometry" />
        </mxCell>
        <mxCell id="KrHRzH38c8H_ezdimAqq-10" value="" style="shape=hexagon;perimeter=hexagonPerimeter2;whiteSpace=wrap;html=1;fixedSize=1;size=20;align=center;verticalAlign=middle;horizontal=1;" parent="KrHRzH38c8H_ezdimAqq-9" vertex="1">
          <mxGeometry width="260" height="80" as="geometry" />
        </mxCell>
        <mxCell id="KrHRzH38c8H_ezdimAqq-11" value="" style="endArrow=none;html=1;rounded=0;entryX=1;entryY=0.5;entryDx=0;entryDy=0;align=center;verticalAlign=middle;horizontal=1;" parent="KrHRzH38c8H_ezdimAqq-9" target="KrHRzH38c8H_ezdimAqq-10" edge="1">
          <mxGeometry width="50" height="50" relative="1" as="geometry">
            <mxPoint y="39.860000000000014" as="sourcePoint" />
            <mxPoint x="173.33333333333331" y="39.860000000000014" as="targetPoint" />
          </mxGeometry>
        </mxCell>
        <mxCell id="KrHRzH38c8H_ezdimAqq-12" value="8" style="text;strokeColor=none;align=center;fillColor=none;html=1;verticalAlign=middle;whiteSpace=wrap;rounded=0;fontSize=12;fontFamily=Helvetica;fontColor=default;horizontal=1;" parent="KrHRzH38c8H_ezdimAqq-9" vertex="1">
          <mxGeometry x="21.666666666666664" y="40" width="86.66666666666666" height="30" as="geometry" />
        </mxCell>
        <mxCell id="KrHRzH38c8H_ezdimAqq-13" value="recaudacionVendedor" style="text;strokeColor=none;align=center;fillColor=none;html=1;verticalAlign=middle;whiteSpace=wrap;rounded=0;fontSize=12;fontFamily=Helvetica;fontColor=default;horizontal=1;" parent="KrHRzH38c8H_ezdimAqq-9" vertex="1">
          <mxGeometry x="127.50333333333333" y="40" width="86.66666666666666" height="30" as="geometry" />
        </mxCell>
        <mxCell id="KrHRzH38c8H_ezdimAqq-14" value="inicializarCero" style="text;strokeColor=none;align=center;fillColor=none;html=1;verticalAlign=middle;whiteSpace=wrap;rounded=0;fontSize=12;fontFamily=Helvetica;fontColor=default;horizontal=1;" parent="KrHRzH38c8H_ezdimAqq-9" vertex="1">
          <mxGeometry x="65" y="10" width="130" height="10" as="geometry" />
        </mxCell>
        <mxCell id="KrHRzH38c8H_ezdimAqq-15" value="" style="endArrow=none;html=1;rounded=0;exitX=0.415;exitY=0.995;exitDx=0;exitDy=0;exitPerimeter=0;align=center;verticalAlign=middle;horizontal=1;" parent="KrHRzH38c8H_ezdimAqq-9" source="KrHRzH38c8H_ezdimAqq-10" edge="1">
          <mxGeometry width="50" height="50" relative="1" as="geometry">
            <mxPoint x="125.16000000000003" y="60" as="sourcePoint" />
            <mxPoint x="108.32952380952389" y="40" as="targetPoint" />
          </mxGeometry>
        </mxCell>
        <mxCell id="KrHRzH38c8H_ezdimAqq-19" style="edgeStyle=orthogonalEdgeStyle;rounded=0;orthogonalLoop=1;jettySize=auto;html=1;exitX=0.5;exitY=1;exitDx=0;exitDy=0;endArrow=none;endFill=0;" parent="WIyWlLk6GJQsqaUBKTNV-1" source="KrHRzH38c8H_ezdimAqq-16" target="KrHRzH38c8H_ezdimAqq-17" edge="1">
          <mxGeometry relative="1" as="geometry" />
        </mxCell>
        <mxCell id="KrHRzH38c8H_ezdimAqq-16" value="v[num_vendedor - 1] += (cant_pasajes * v_costo[cod_vuelo - 1]) * 0.05" style="whiteSpace=wrap;html=1;" parent="WIyWlLk6GJQsqaUBKTNV-1" vertex="1">
          <mxGeometry x="905.0000000000001" y="2560" width="210" height="50" as="geometry" />
        </mxCell>
        <mxCell id="KrHRzH38c8H_ezdimAqq-17" value="F" style="ellipse;whiteSpace=wrap;html=1;" parent="WIyWlLk6GJQsqaUBKTNV-1" vertex="1">
          <mxGeometry x="985" y="2640" width="50" height="50" as="geometry" />
        </mxCell>
        <mxCell id="KrHRzH38c8H_ezdimAqq-18" style="edgeStyle=orthogonalEdgeStyle;rounded=0;orthogonalLoop=1;jettySize=auto;html=1;exitX=0.5;exitY=1;exitDx=0;exitDy=0;entryX=0.5;entryY=0;entryDx=0;entryDy=0;endArrow=none;endFill=0;" parent="WIyWlLk6GJQsqaUBKTNV-1" source="KrHRzH38c8H_ezdimAqq-2" target="KrHRzH38c8H_ezdimAqq-16" edge="1">
          <mxGeometry relative="1" as="geometry" />
        </mxCell>
        <mxCell id="KrHRzH38c8H_ezdimAqq-22" value="" style="group" parent="WIyWlLk6GJQsqaUBKTNV-1" vertex="1" connectable="0">
          <mxGeometry x="805" y="920" width="420" height="80" as="geometry" />
        </mxCell>
        <mxCell id="KrHRzH38c8H_ezdimAqq-23" value="" style="group;shadow=1;" parent="KrHRzH38c8H_ezdimAqq-22" vertex="1" connectable="0">
          <mxGeometry width="420" height="80" as="geometry" />
        </mxCell>
        <mxCell id="KrHRzH38c8H_ezdimAqq-24" value="" style="shape=hexagon;perimeter=hexagonPerimeter2;whiteSpace=wrap;html=1;fixedSize=1;size=20;" parent="KrHRzH38c8H_ezdimAqq-23" vertex="1">
          <mxGeometry width="420" height="80" as="geometry" />
        </mxCell>
        <mxCell id="KrHRzH38c8H_ezdimAqq-25" value="" style="endArrow=none;html=1;rounded=0;entryX=1;entryY=0.5;entryDx=0;entryDy=0;" parent="KrHRzH38c8H_ezdimAqq-23" target="KrHRzH38c8H_ezdimAqq-24" edge="1">
          <mxGeometry width="50" height="50" relative="1" as="geometry">
            <mxPoint y="39.860000000000014" as="sourcePoint" />
            <mxPoint x="279.99999999999994" y="39.860000000000014" as="targetPoint" />
          </mxGeometry>
        </mxCell>
        <mxCell id="KrHRzH38c8H_ezdimAqq-26" value="cant_pasajes,&amp;nbsp; nro_vendedor, cod_vuelo" style="text;strokeColor=none;align=center;fillColor=none;html=1;verticalAlign=middle;whiteSpace=wrap;rounded=0;fontSize=12;fontFamily=Helvetica;fontColor=default;" parent="KrHRzH38c8H_ezdimAqq-23" vertex="1">
          <mxGeometry x="18.801791044776117" y="40" width="139.99999999999997" height="30" as="geometry" />
        </mxCell>
        <mxCell id="KrHRzH38c8H_ezdimAqq-27" value="recaudacionVendedor, v_costo" style="text;strokeColor=none;align=center;fillColor=none;html=1;verticalAlign=middle;whiteSpace=wrap;rounded=0;fontSize=12;fontFamily=Helvetica;fontColor=default;" parent="KrHRzH38c8H_ezdimAqq-23" vertex="1">
          <mxGeometry x="194.32552491778395" y="40" width="139.99999999999997" height="30" as="geometry" />
        </mxCell>
        <mxCell id="KrHRzH38c8H_ezdimAqq-28" value="recaucionVendedor" style="text;strokeColor=none;align=center;fillColor=none;html=1;verticalAlign=middle;whiteSpace=wrap;rounded=0;fontSize=12;fontFamily=Helvetica;fontColor=default;" parent="KrHRzH38c8H_ezdimAqq-23" vertex="1">
          <mxGeometry x="105" y="10" width="210" height="10" as="geometry" />
        </mxCell>
        <mxCell id="KrHRzH38c8H_ezdimAqq-29" value="" style="endArrow=none;html=1;rounded=0;fontFamily=Helvetica;fontSize=12;fontColor=default;exitX=0.375;exitY=1;exitDx=0;exitDy=0;movable=0;resizable=0;rotatable=0;deletable=0;editable=0;locked=1;connectable=0;" parent="KrHRzH38c8H_ezdimAqq-22" source="KrHRzH38c8H_ezdimAqq-24" edge="1">
          <mxGeometry width="50" height="50" relative="1" as="geometry">
            <mxPoint x="69.99999999999999" y="100" as="sourcePoint" />
            <mxPoint x="157.50000000000003" y="40" as="targetPoint" />
          </mxGeometry>
        </mxCell>
        <mxCell id="KrHRzH38c8H_ezdimAqq-30" value="" style="group;align=center;verticalAlign=middle;horizontal=1;" parent="WIyWlLk6GJQsqaUBKTNV-1" vertex="1" connectable="0">
          <mxGeometry x="232.5" y="830" width="260" height="80" as="geometry" />
        </mxCell>
        <mxCell id="KrHRzH38c8H_ezdimAqq-31" value="" style="group;shadow=1;align=center;verticalAlign=middle;horizontal=1;" parent="KrHRzH38c8H_ezdimAqq-30" vertex="1" connectable="0">
          <mxGeometry width="260" height="80" as="geometry" />
        </mxCell>
        <mxCell id="KrHRzH38c8H_ezdimAqq-32" value="" style="shape=hexagon;perimeter=hexagonPerimeter2;whiteSpace=wrap;html=1;fixedSize=1;size=20;align=center;verticalAlign=middle;horizontal=1;" parent="KrHRzH38c8H_ezdimAqq-31" vertex="1">
          <mxGeometry width="260" height="80" as="geometry" />
        </mxCell>
        <mxCell id="KrHRzH38c8H_ezdimAqq-33" value="" style="endArrow=none;html=1;rounded=0;entryX=1;entryY=0.5;entryDx=0;entryDy=0;align=center;verticalAlign=middle;horizontal=1;" parent="KrHRzH38c8H_ezdimAqq-31" target="KrHRzH38c8H_ezdimAqq-32" edge="1">
          <mxGeometry width="50" height="50" relative="1" as="geometry">
            <mxPoint y="39.860000000000014" as="sourcePoint" />
            <mxPoint x="173.33333333333331" y="39.860000000000014" as="targetPoint" />
          </mxGeometry>
        </mxCell>
        <mxCell id="KrHRzH38c8H_ezdimAqq-34" value="8" style="text;strokeColor=none;align=center;fillColor=none;html=1;verticalAlign=middle;whiteSpace=wrap;rounded=0;fontSize=12;fontFamily=Helvetica;fontColor=default;horizontal=1;" parent="KrHRzH38c8H_ezdimAqq-31" vertex="1">
          <mxGeometry x="21.666666666666664" y="40" width="86.66666666666666" height="30" as="geometry" />
        </mxCell>
        <mxCell id="KrHRzH38c8H_ezdimAqq-35" value="recaudacionVendor" style="text;strokeColor=none;align=center;fillColor=none;html=1;verticalAlign=middle;whiteSpace=wrap;rounded=0;fontSize=12;fontFamily=Helvetica;fontColor=default;horizontal=1;" parent="KrHRzH38c8H_ezdimAqq-31" vertex="1">
          <mxGeometry x="115.00333333333333" y="40" width="86.66666666666666" height="30" as="geometry" />
        </mxCell>
        <mxCell id="KrHRzH38c8H_ezdimAqq-36" value="recorrerVec" style="text;strokeColor=none;align=center;fillColor=none;html=1;verticalAlign=middle;whiteSpace=wrap;rounded=0;fontSize=12;fontFamily=Helvetica;fontColor=default;horizontal=1;" parent="KrHRzH38c8H_ezdimAqq-31" vertex="1">
          <mxGeometry x="65" y="10" width="130" height="10" as="geometry" />
        </mxCell>
        <mxCell id="KrHRzH38c8H_ezdimAqq-37" value="" style="endArrow=none;html=1;rounded=0;fontFamily=Helvetica;fontSize=12;fontColor=default;exitX=0.375;exitY=1;exitDx=0;exitDy=0;movable=0;resizable=0;rotatable=0;deletable=0;editable=0;locked=1;connectable=0;" parent="KrHRzH38c8H_ezdimAqq-30" source="KrHRzH38c8H_ezdimAqq-32" edge="1">
          <mxGeometry width="50" height="50" relative="1" as="geometry">
            <mxPoint x="43.33333333333333" y="100" as="sourcePoint" />
            <mxPoint x="97.5" y="40" as="targetPoint" />
          </mxGeometry>
        </mxCell>
        <mxCell id="KrHRzH38c8H_ezdimAqq-38" value="" style="group" parent="WIyWlLk6GJQsqaUBKTNV-1" vertex="1" connectable="0">
          <mxGeometry x="870" y="2710" width="300" height="80" as="geometry" />
        </mxCell>
        <mxCell id="KrHRzH38c8H_ezdimAqq-39" value="" style="group;shadow=1;" parent="KrHRzH38c8H_ezdimAqq-38" vertex="1" connectable="0">
          <mxGeometry width="300" height="80" as="geometry" />
        </mxCell>
        <mxCell id="KrHRzH38c8H_ezdimAqq-59" style="edgeStyle=orthogonalEdgeStyle;rounded=0;orthogonalLoop=1;jettySize=auto;html=1;exitX=0.5;exitY=1;exitDx=0;exitDy=0;" parent="KrHRzH38c8H_ezdimAqq-39" source="KrHRzH38c8H_ezdimAqq-40" edge="1">
          <mxGeometry relative="1" as="geometry">
            <mxPoint x="150" y="110" as="targetPoint" />
          </mxGeometry>
        </mxCell>
        <mxCell id="KrHRzH38c8H_ezdimAqq-40" value="" style="shape=hexagon;perimeter=hexagonPerimeter2;whiteSpace=wrap;html=1;fixedSize=1;size=20;" parent="KrHRzH38c8H_ezdimAqq-39" vertex="1">
          <mxGeometry width="300" height="80" as="geometry" />
        </mxCell>
        <mxCell id="KrHRzH38c8H_ezdimAqq-41" value="" style="endArrow=none;html=1;rounded=0;entryX=1;entryY=0.5;entryDx=0;entryDy=0;" parent="KrHRzH38c8H_ezdimAqq-39" target="KrHRzH38c8H_ezdimAqq-40" edge="1">
          <mxGeometry width="50" height="50" relative="1" as="geometry">
            <mxPoint y="39.860000000000014" as="sourcePoint" />
            <mxPoint x="199.99999999999997" y="39.860000000000014" as="targetPoint" />
          </mxGeometry>
        </mxCell>
        <mxCell id="KrHRzH38c8H_ezdimAqq-43" value="float recaudacionVendedor[8]" style="text;strokeColor=none;align=center;fillColor=none;html=1;verticalAlign=middle;whiteSpace=wrap;rounded=0;fontSize=12;fontFamily=Helvetica;fontColor=default;" parent="KrHRzH38c8H_ezdimAqq-39" vertex="1">
          <mxGeometry x="150" y="40" width="99.99999999999999" height="30" as="geometry" />
        </mxCell>
        <mxCell id="KrHRzH38c8H_ezdimAqq-44" value="void mostrarPuntoC" style="text;strokeColor=none;align=center;fillColor=none;html=1;verticalAlign=middle;whiteSpace=wrap;rounded=0;fontSize=12;fontFamily=Helvetica;fontColor=default;" parent="KrHRzH38c8H_ezdimAqq-39" vertex="1">
          <mxGeometry x="75" y="10" width="150" height="10" as="geometry" />
        </mxCell>
        <mxCell id="KrHRzH38c8H_ezdimAqq-45" value="" style="endArrow=none;html=1;rounded=0;fontFamily=Helvetica;fontSize=12;fontColor=default;exitX=0.375;exitY=1;exitDx=0;exitDy=0;movable=0;resizable=0;rotatable=0;deletable=0;editable=0;locked=1;connectable=0;" parent="KrHRzH38c8H_ezdimAqq-38" source="KrHRzH38c8H_ezdimAqq-40" edge="1">
          <mxGeometry width="50" height="50" relative="1" as="geometry">
            <mxPoint x="49.99999999999999" y="100" as="sourcePoint" />
            <mxPoint x="112.49999999999999" y="40" as="targetPoint" />
          </mxGeometry>
        </mxCell>
        <mxCell id="KrHRzH38c8H_ezdimAqq-60" style="edgeStyle=orthogonalEdgeStyle;rounded=0;orthogonalLoop=1;jettySize=auto;html=1;exitX=0.5;exitY=1;exitDx=0;exitDy=0;entryX=0.5;entryY=0;entryDx=0;entryDy=0;" parent="WIyWlLk6GJQsqaUBKTNV-1" source="KrHRzH38c8H_ezdimAqq-46" target="KrHRzH38c8H_ezdimAqq-51" edge="1">
          <mxGeometry relative="1" as="geometry" />
        </mxCell>
        <mxCell id="KrHRzH38c8H_ezdimAqq-46" value="int i = 7; i&amp;gt;=0;i--" style="swimlane;horizontal=0;whiteSpace=wrap;html=1;" parent="WIyWlLk6GJQsqaUBKTNV-1" vertex="1">
          <mxGeometry x="780" y="2820" width="460" height="190" as="geometry" />
        </mxCell>
        <mxCell id="KrHRzH38c8H_ezdimAqq-48" value="recaudacionVendedor[i] != 0" style="rhombus;whiteSpace=wrap;html=1;" parent="KrHRzH38c8H_ezdimAqq-46" vertex="1">
          <mxGeometry x="124.99999999999994" y="10" width="210" height="80" as="geometry" />
        </mxCell>
        <mxCell id="KrHRzH38c8H_ezdimAqq-49" value="&quot;Vendedor: &quot; + i + 1 + &quot;Comision: &quot; + recaudacionVendedor[i]" style="shape=trapezoid;perimeter=trapezoidPerimeter;whiteSpace=wrap;html=1;fixedSize=1;" parent="KrHRzH38c8H_ezdimAqq-46" vertex="1">
          <mxGeometry x="41.19" y="110" width="158.81" height="60" as="geometry" />
        </mxCell>
        <mxCell id="KrHRzH38c8H_ezdimAqq-50" style="edgeStyle=orthogonalEdgeStyle;rounded=0;orthogonalLoop=1;jettySize=auto;html=1;exitX=0;exitY=0.5;exitDx=0;exitDy=0;entryX=0.37;entryY=0;entryDx=0;entryDy=0;entryPerimeter=0;" parent="KrHRzH38c8H_ezdimAqq-46" source="KrHRzH38c8H_ezdimAqq-48" target="KrHRzH38c8H_ezdimAqq-49" edge="1">
          <mxGeometry relative="1" as="geometry" />
        </mxCell>
        <mxCell id="KrHRzH38c8H_ezdimAqq-51" value="F" style="ellipse;whiteSpace=wrap;html=1;" parent="WIyWlLk6GJQsqaUBKTNV-1" vertex="1">
          <mxGeometry x="981.19" y="3030" width="60" height="60" as="geometry" />
        </mxCell>
        <mxCell id="KrHRzH38c8H_ezdimAqq-52" value="" style="group" parent="WIyWlLk6GJQsqaUBKTNV-1" vertex="1" connectable="0">
          <mxGeometry x="210" y="940" width="300" height="80" as="geometry" />
        </mxCell>
        <mxCell id="KrHRzH38c8H_ezdimAqq-53" value="" style="group;shadow=1;" parent="KrHRzH38c8H_ezdimAqq-52" vertex="1" connectable="0">
          <mxGeometry width="300" height="80" as="geometry" />
        </mxCell>
        <mxCell id="KrHRzH38c8H_ezdimAqq-54" value="" style="shape=hexagon;perimeter=hexagonPerimeter2;whiteSpace=wrap;html=1;fixedSize=1;size=20;" parent="KrHRzH38c8H_ezdimAqq-53" vertex="1">
          <mxGeometry width="300" height="80" as="geometry" />
        </mxCell>
        <mxCell id="KrHRzH38c8H_ezdimAqq-55" value="" style="endArrow=none;html=1;rounded=0;entryX=1;entryY=0.5;entryDx=0;entryDy=0;" parent="KrHRzH38c8H_ezdimAqq-53" target="KrHRzH38c8H_ezdimAqq-54" edge="1">
          <mxGeometry width="50" height="50" relative="1" as="geometry">
            <mxPoint y="39.860000000000014" as="sourcePoint" />
            <mxPoint x="199.99999999999997" y="39.860000000000014" as="targetPoint" />
          </mxGeometry>
        </mxCell>
        <mxCell id="KrHRzH38c8H_ezdimAqq-56" value="&amp;nbsp;recaudacionVendedor" style="text;strokeColor=none;align=center;fillColor=none;html=1;verticalAlign=middle;whiteSpace=wrap;rounded=0;fontSize=12;fontFamily=Helvetica;fontColor=default;" parent="KrHRzH38c8H_ezdimAqq-53" vertex="1">
          <mxGeometry x="150" y="40" width="99.99999999999999" height="30" as="geometry" />
        </mxCell>
        <mxCell id="KrHRzH38c8H_ezdimAqq-57" value="&amp;nbsp;mostrarPuntoC" style="text;strokeColor=none;align=center;fillColor=none;html=1;verticalAlign=middle;whiteSpace=wrap;rounded=0;fontSize=12;fontFamily=Helvetica;fontColor=default;" parent="KrHRzH38c8H_ezdimAqq-53" vertex="1">
          <mxGeometry x="75" y="10" width="150" height="10" as="geometry" />
        </mxCell>
        <mxCell id="KrHRzH38c8H_ezdimAqq-58" value="" style="endArrow=none;html=1;rounded=0;fontFamily=Helvetica;fontSize=12;fontColor=default;exitX=0.375;exitY=1;exitDx=0;exitDy=0;movable=0;resizable=0;rotatable=0;deletable=0;editable=0;locked=1;connectable=0;" parent="KrHRzH38c8H_ezdimAqq-52" source="KrHRzH38c8H_ezdimAqq-54" edge="1">
          <mxGeometry width="50" height="50" relative="1" as="geometry">
            <mxPoint x="49.99999999999999" y="100" as="sourcePoint" />
            <mxPoint x="112.49999999999999" y="40" as="targetPoint" />
          </mxGeometry>
        </mxCell>
      </root>
    </mxGraphModel>
  </diagram>
  <diagram id="2WJdjrcfrVlXNqlheio-" name="Punto-A">
    <mxGraphModel dx="1793" dy="1400" grid="1" gridSize="10" guides="1" tooltips="1" connect="1" arrows="1" fold="1" page="0" pageScale="1" pageWidth="827" pageHeight="1169" math="0" shadow="0">
      <root>
        <mxCell id="0" />
        <mxCell id="1" parent="0" />
        <mxCell id="7EOyPtN6c00PJySaBQEj-1" style="edgeStyle=orthogonalEdgeStyle;rounded=0;orthogonalLoop=1;jettySize=auto;html=1;exitX=0.5;exitY=1;exitDx=0;exitDy=0;entryX=0.5;entryY=0;entryDx=0;entryDy=0;endArrow=none;endFill=0;" edge="1" parent="1" target="7EOyPtN6c00PJySaBQEj-15">
          <mxGeometry relative="1" as="geometry">
            <mxPoint x="390.0000000000001" y="-160" as="sourcePoint" />
          </mxGeometry>
        </mxCell>
        <mxCell id="7EOyPtN6c00PJySaBQEj-2" style="edgeStyle=orthogonalEdgeStyle;rounded=0;orthogonalLoop=1;jettySize=auto;html=1;exitX=0.5;exitY=1;exitDx=0;exitDy=0;entryX=0.5;entryY=0;entryDx=0;entryDy=0;endArrow=none;endFill=0;" edge="1" parent="1" source="7EOyPtN6c00PJySaBQEj-3" target="7EOyPtN6c00PJySaBQEj-16">
          <mxGeometry relative="1" as="geometry" />
        </mxCell>
        <mxCell id="7EOyPtN6c00PJySaBQEj-3" value="int i=49;i&amp;gt;=0;i--" style="swimlane;horizontal=0;whiteSpace=wrap;html=1;rounded=0;" vertex="1" parent="1">
          <mxGeometry x="876.19" y="150" width="270" height="220" as="geometry" />
        </mxCell>
        <mxCell id="kJUFjtMTr3cK5gbmItrI-1" style="edgeStyle=orthogonalEdgeStyle;rounded=0;orthogonalLoop=1;jettySize=auto;html=1;exitX=0.5;exitY=0;exitDx=0;exitDy=0;entryX=0.5;entryY=0;entryDx=0;entryDy=0;endArrow=none;endFill=0;" edge="1" parent="7EOyPtN6c00PJySaBQEj-3" source="7EOyPtN6c00PJySaBQEj-4" target="7EOyPtN6c00PJySaBQEj-5">
          <mxGeometry relative="1" as="geometry" />
        </mxCell>
        <mxCell id="7EOyPtN6c00PJySaBQEj-4" value="ciudad_origen,ciudad_destino, costo,distancia" style="shape=trapezoid;perimeter=trapezoidPerimeter;whiteSpace=wrap;html=1;fixedSize=1;direction=west;rounded=0;" vertex="1" parent="7EOyPtN6c00PJySaBQEj-3">
          <mxGeometry x="33.81" y="10" width="200" height="50" as="geometry" />
        </mxCell>
        <mxCell id="kJUFjtMTr3cK5gbmItrI-2" style="edgeStyle=orthogonalEdgeStyle;rounded=0;orthogonalLoop=1;jettySize=auto;html=1;exitX=0.5;exitY=1;exitDx=0;exitDy=0;entryX=0.5;entryY=0;entryDx=0;entryDy=0;endArrow=none;endFill=0;" edge="1" parent="7EOyPtN6c00PJySaBQEj-3" source="7EOyPtN6c00PJySaBQEj-5" target="7EOyPtN6c00PJySaBQEj-6">
          <mxGeometry relative="1" as="geometry" />
        </mxCell>
        <mxCell id="7EOyPtN6c00PJySaBQEj-5" value="v_origen[i] = origen" style="whiteSpace=wrap;html=1;rounded=0;" vertex="1" parent="7EOyPtN6c00PJySaBQEj-3">
          <mxGeometry x="73.81" y="70" width="120" height="30" as="geometry" />
        </mxCell>
        <mxCell id="kJUFjtMTr3cK5gbmItrI-3" style="edgeStyle=orthogonalEdgeStyle;rounded=0;orthogonalLoop=1;jettySize=auto;html=1;exitX=0.5;exitY=1;exitDx=0;exitDy=0;entryX=0.5;entryY=0;entryDx=0;entryDy=0;endArrow=none;endFill=0;" edge="1" parent="7EOyPtN6c00PJySaBQEj-3" source="7EOyPtN6c00PJySaBQEj-6" target="7EOyPtN6c00PJySaBQEj-7">
          <mxGeometry relative="1" as="geometry" />
        </mxCell>
        <mxCell id="7EOyPtN6c00PJySaBQEj-6" value="v_destino[i] = destino" style="whiteSpace=wrap;html=1;rounded=0;" vertex="1" parent="7EOyPtN6c00PJySaBQEj-3">
          <mxGeometry x="73.81" y="110" width="120" height="30" as="geometry" />
        </mxCell>
        <mxCell id="kJUFjtMTr3cK5gbmItrI-4" style="edgeStyle=orthogonalEdgeStyle;rounded=0;orthogonalLoop=1;jettySize=auto;html=1;exitX=0.5;exitY=1;exitDx=0;exitDy=0;entryX=0.5;entryY=0;entryDx=0;entryDy=0;endArrow=none;endFill=0;" edge="1" parent="7EOyPtN6c00PJySaBQEj-3" source="7EOyPtN6c00PJySaBQEj-7" target="7EOyPtN6c00PJySaBQEj-8">
          <mxGeometry relative="1" as="geometry" />
        </mxCell>
        <mxCell id="7EOyPtN6c00PJySaBQEj-7" value="v_costo[i] = costo" style="whiteSpace=wrap;html=1;rounded=0;" vertex="1" parent="7EOyPtN6c00PJySaBQEj-3">
          <mxGeometry x="73.81" y="150" width="120" height="20" as="geometry" />
        </mxCell>
        <mxCell id="7EOyPtN6c00PJySaBQEj-8" value="v_distancia[i] = distancia" style="whiteSpace=wrap;html=1;rounded=0;" vertex="1" parent="7EOyPtN6c00PJySaBQEj-3">
          <mxGeometry x="73.81" y="180" width="120" height="30" as="geometry" />
        </mxCell>
        <mxCell id="7EOyPtN6c00PJySaBQEj-11" value="dia != 0" style="swimlane;whiteSpace=wrap;html=1;rounded=0;" vertex="1" parent="1">
          <mxGeometry x="740" y="660" width="520" height="310" as="geometry" />
        </mxCell>
        <mxCell id="7EOyPtN6c00PJySaBQEj-12" value="nro_cliente, cod_vuelo,dia,mes, cant_pasajes,nro_vendedor&amp;nbsp;" style="shape=trapezoid;perimeter=trapezoidPerimeter;whiteSpace=wrap;html=1;fixedSize=1;direction=west;rounded=0;" vertex="1" parent="7EOyPtN6c00PJySaBQEj-11">
          <mxGeometry x="174.63" y="210" width="182.37" height="60" as="geometry" />
        </mxCell>
        <mxCell id="7EOyPtN6c00PJySaBQEj-15" value="int v_origen[50],int v_destino[50], float v_costo[50], v_distancia[50]" style="whiteSpace=wrap;html=1;rounded=0;" vertex="1" parent="1">
          <mxGeometry x="285" y="-140" width="210" height="60" as="geometry" />
        </mxCell>
        <mxCell id="7EOyPtN6c00PJySaBQEj-16" value="F" style="ellipse;whiteSpace=wrap;html=1;rounded=0;" vertex="1" parent="1">
          <mxGeometry x="986.19" y="390" width="50" height="50" as="geometry" />
        </mxCell>
        <mxCell id="7EOyPtN6c00PJySaBQEj-17" style="edgeStyle=orthogonalEdgeStyle;rounded=0;orthogonalLoop=1;jettySize=auto;html=1;exitX=0.5;exitY=1;exitDx=0;exitDy=0;entryX=0.462;entryY=0;entryDx=0;entryDy=0;entryPerimeter=0;endArrow=none;endFill=0;" edge="1" parent="1" source="7EOyPtN6c00PJySaBQEj-15">
          <mxGeometry relative="1" as="geometry">
            <mxPoint x="389.94220000000007" y="-40" as="targetPoint" />
          </mxGeometry>
        </mxCell>
        <mxCell id="7EOyPtN6c00PJySaBQEj-18" value="" style="group;rounded=0;" vertex="1" connectable="0" parent="1">
          <mxGeometry x="827" y="50" width="360" height="80" as="geometry" />
        </mxCell>
        <mxCell id="7EOyPtN6c00PJySaBQEj-19" value="" style="group;shadow=1;rounded=0;" vertex="1" connectable="0" parent="7EOyPtN6c00PJySaBQEj-18">
          <mxGeometry width="360" height="80" as="geometry" />
        </mxCell>
        <mxCell id="dxoL3kc4gIrELIWLgSA1-12" style="edgeStyle=orthogonalEdgeStyle;rounded=0;orthogonalLoop=1;jettySize=auto;html=1;exitX=0.5;exitY=1;exitDx=0;exitDy=0;endArrow=none;endFill=0;" edge="1" parent="7EOyPtN6c00PJySaBQEj-19" source="7EOyPtN6c00PJySaBQEj-20">
          <mxGeometry relative="1" as="geometry">
            <mxPoint x="179.8888888888887" y="100" as="targetPoint" />
          </mxGeometry>
        </mxCell>
        <mxCell id="7EOyPtN6c00PJySaBQEj-20" value="" style="shape=hexagon;perimeter=hexagonPerimeter2;whiteSpace=wrap;html=1;fixedSize=1;size=20;rounded=0;" vertex="1" parent="7EOyPtN6c00PJySaBQEj-19">
          <mxGeometry width="360" height="80" as="geometry" />
        </mxCell>
        <mxCell id="7EOyPtN6c00PJySaBQEj-21" value="" style="endArrow=none;html=1;rounded=0;entryX=1;entryY=0.5;entryDx=0;entryDy=0;" edge="1" parent="7EOyPtN6c00PJySaBQEj-19" target="7EOyPtN6c00PJySaBQEj-20">
          <mxGeometry width="50" height="50" relative="1" as="geometry">
            <mxPoint y="39.860000000000014" as="sourcePoint" />
            <mxPoint x="239.99999999999997" y="39.860000000000014" as="targetPoint" />
          </mxGeometry>
        </mxCell>
        <mxCell id="7EOyPtN6c00PJySaBQEj-22" value="int v_origen[50],int v_destino[50], float v_costo[50], float v_distancia[50]" style="text;align=center;html=1;verticalAlign=middle;whiteSpace=wrap;rounded=0;fontSize=12;fontFamily=Helvetica;" vertex="1" parent="7EOyPtN6c00PJySaBQEj-19">
          <mxGeometry x="130" y="40" width="220" height="30" as="geometry" />
        </mxCell>
        <mxCell id="7EOyPtN6c00PJySaBQEj-23" value="void fCarga" style="text;align=center;html=1;verticalAlign=middle;whiteSpace=wrap;rounded=0;fontSize=12;fontFamily=Helvetica;" vertex="1" parent="7EOyPtN6c00PJySaBQEj-19">
          <mxGeometry x="90" y="14.545454545454545" width="180" height="5.454545454545455" as="geometry" />
        </mxCell>
        <mxCell id="7EOyPtN6c00PJySaBQEj-24" value="" style="endArrow=none;html=1;rounded=0;fontFamily=Helvetica;fontSize=12;fontColor=default;exitX=0.375;exitY=1;exitDx=0;exitDy=0;" edge="1" parent="7EOyPtN6c00PJySaBQEj-18" source="7EOyPtN6c00PJySaBQEj-20">
          <mxGeometry width="50" height="50" relative="1" as="geometry">
            <mxPoint x="59.99999999999999" y="100" as="sourcePoint" />
            <mxPoint x="135" y="40" as="targetPoint" />
          </mxGeometry>
        </mxCell>
        <mxCell id="7EOyPtN6c00PJySaBQEj-25" value="" style="group;rounded=0;" vertex="1" connectable="0" parent="1">
          <mxGeometry x="710" y="480" width="590" height="80" as="geometry" />
        </mxCell>
        <mxCell id="7EOyPtN6c00PJySaBQEj-26" value="" style="group;shadow=1;rounded=0;" vertex="1" connectable="0" parent="7EOyPtN6c00PJySaBQEj-25">
          <mxGeometry width="590" height="80" as="geometry" />
        </mxCell>
        <mxCell id="7EOyPtN6c00PJySaBQEj-27" value="" style="shape=hexagon;perimeter=hexagonPerimeter2;whiteSpace=wrap;html=1;fixedSize=1;size=20;rounded=0;" vertex="1" parent="7EOyPtN6c00PJySaBQEj-26">
          <mxGeometry width="590" height="80" as="geometry" />
        </mxCell>
        <mxCell id="7EOyPtN6c00PJySaBQEj-28" value="" style="endArrow=none;html=1;rounded=0;entryX=1;entryY=0.5;entryDx=0;entryDy=0;" edge="1" parent="7EOyPtN6c00PJySaBQEj-26" target="7EOyPtN6c00PJySaBQEj-27">
          <mxGeometry width="50" height="50" relative="1" as="geometry">
            <mxPoint y="39.860000000000014" as="sourcePoint" />
            <mxPoint x="393.3333333333333" y="39.860000000000014" as="targetPoint" />
          </mxGeometry>
        </mxCell>
        <mxCell id="7EOyPtN6c00PJySaBQEj-29" value="float millasPTA[150], v_distancia[50]" style="text;align=center;html=1;verticalAlign=middle;whiteSpace=wrap;rounded=0;fontSize=12;fontFamily=Helvetica;" vertex="1" parent="7EOyPtN6c00PJySaBQEj-26">
          <mxGeometry x="245.83182055936737" y="40" width="262.4602319928618" height="30" as="geometry" />
        </mxCell>
        <mxCell id="7EOyPtN6c00PJySaBQEj-30" value="void fProceso" style="text;align=center;html=1;verticalAlign=middle;whiteSpace=wrap;rounded=0;fontSize=12;fontFamily=Helvetica;" vertex="1" parent="7EOyPtN6c00PJySaBQEj-26">
          <mxGeometry x="147.5" y="10" width="295" height="10" as="geometry" />
        </mxCell>
        <mxCell id="7EOyPtN6c00PJySaBQEj-31" value="" style="endArrow=none;html=1;rounded=0;fontFamily=Helvetica;fontSize=12;fontColor=default;exitX=0.375;exitY=1;exitDx=0;exitDy=0;" edge="1" parent="7EOyPtN6c00PJySaBQEj-25" source="7EOyPtN6c00PJySaBQEj-27">
          <mxGeometry width="50" height="50" relative="1" as="geometry">
            <mxPoint x="98.33333333333333" y="100" as="sourcePoint" />
            <mxPoint x="221.25" y="40" as="targetPoint" />
          </mxGeometry>
        </mxCell>
        <mxCell id="7EOyPtN6c00PJySaBQEj-32" value="" style="group;rounded=0;" vertex="1" connectable="0" parent="1">
          <mxGeometry x="210" y="-40" width="360" height="90" as="geometry" />
        </mxCell>
        <mxCell id="7EOyPtN6c00PJySaBQEj-33" value="" style="group;shadow=1;rounded=0;" vertex="1" connectable="0" parent="7EOyPtN6c00PJySaBQEj-32">
          <mxGeometry width="360" height="90" as="geometry" />
        </mxCell>
        <mxCell id="7EOyPtN6c00PJySaBQEj-34" value="" style="shape=hexagon;perimeter=hexagonPerimeter2;whiteSpace=wrap;html=1;fixedSize=1;size=20;rounded=0;" vertex="1" parent="7EOyPtN6c00PJySaBQEj-33">
          <mxGeometry width="360" height="90" as="geometry" />
        </mxCell>
        <mxCell id="7EOyPtN6c00PJySaBQEj-35" value="" style="endArrow=none;html=1;rounded=0;entryX=1;entryY=0.5;entryDx=0;entryDy=0;" edge="1" parent="7EOyPtN6c00PJySaBQEj-33" target="7EOyPtN6c00PJySaBQEj-34">
          <mxGeometry width="50" height="50" relative="1" as="geometry">
            <mxPoint y="44.842500000000015" as="sourcePoint" />
            <mxPoint x="239.99999999999997" y="44.842500000000015" as="targetPoint" />
          </mxGeometry>
        </mxCell>
        <mxCell id="7EOyPtN6c00PJySaBQEj-36" value="v_origen, v_destino,&amp;nbsp; v_costo, v_distancia" style="text;align=center;html=1;verticalAlign=middle;whiteSpace=wrap;rounded=0;fontSize=12;fontFamily=Helvetica;" vertex="1" parent="7EOyPtN6c00PJySaBQEj-33">
          <mxGeometry x="150.00260869565216" y="45" width="178.69304347826088" height="33.75" as="geometry" />
        </mxCell>
        <mxCell id="7EOyPtN6c00PJySaBQEj-37" value="void fCarga" style="text;align=center;html=1;verticalAlign=middle;whiteSpace=wrap;rounded=0;fontSize=12;fontFamily=Helvetica;" vertex="1" parent="7EOyPtN6c00PJySaBQEj-33">
          <mxGeometry x="90" y="16.363636363636363" width="180" height="6.136363636363637" as="geometry" />
        </mxCell>
        <mxCell id="7EOyPtN6c00PJySaBQEj-38" value="" style="endArrow=none;html=1;rounded=0;fontFamily=Helvetica;fontSize=12;fontColor=default;exitX=0.375;exitY=1;exitDx=0;exitDy=0;" edge="1" parent="7EOyPtN6c00PJySaBQEj-32" source="7EOyPtN6c00PJySaBQEj-34">
          <mxGeometry width="50" height="50" relative="1" as="geometry">
            <mxPoint x="59.99999999999999" y="112.5" as="sourcePoint" />
            <mxPoint x="135" y="45" as="targetPoint" />
          </mxGeometry>
        </mxCell>
        <mxCell id="7EOyPtN6c00PJySaBQEj-39" value="" style="group;rounded=0;" vertex="1" connectable="0" parent="1">
          <mxGeometry x="227.5" y="230" width="325.01" height="80" as="geometry" />
        </mxCell>
        <mxCell id="7EOyPtN6c00PJySaBQEj-40" value="" style="group;shadow=1;rounded=0;" vertex="1" connectable="0" parent="7EOyPtN6c00PJySaBQEj-39">
          <mxGeometry width="325.01" height="80" as="geometry" />
        </mxCell>
        <mxCell id="7EOyPtN6c00PJySaBQEj-41" value="" style="shape=hexagon;perimeter=hexagonPerimeter2;whiteSpace=wrap;html=1;fixedSize=1;size=20;rounded=0;" vertex="1" parent="7EOyPtN6c00PJySaBQEj-40">
          <mxGeometry width="325.01" height="80" as="geometry" />
        </mxCell>
        <mxCell id="7EOyPtN6c00PJySaBQEj-42" value="" style="endArrow=none;html=1;rounded=0;entryX=1;entryY=0.5;entryDx=0;entryDy=0;" edge="1" parent="7EOyPtN6c00PJySaBQEj-40" target="7EOyPtN6c00PJySaBQEj-41">
          <mxGeometry width="50" height="50" relative="1" as="geometry">
            <mxPoint y="39.860000000000014" as="sourcePoint" />
            <mxPoint x="216.67333333333332" y="39.860000000000014" as="targetPoint" />
          </mxGeometry>
        </mxCell>
        <mxCell id="7EOyPtN6c00PJySaBQEj-43" value="millasPTA, v_distancia" style="text;align=center;html=1;verticalAlign=middle;whiteSpace=wrap;rounded=0;fontSize=12;fontFamily=Helvetica;" vertex="1" parent="7EOyPtN6c00PJySaBQEj-40">
          <mxGeometry x="135.42" y="40" width="154.58" height="30" as="geometry" />
        </mxCell>
        <mxCell id="7EOyPtN6c00PJySaBQEj-44" value="fProceso" style="text;align=center;html=1;verticalAlign=middle;whiteSpace=wrap;rounded=0;fontSize=12;fontFamily=Helvetica;" vertex="1" parent="7EOyPtN6c00PJySaBQEj-40">
          <mxGeometry x="81.2525" y="10" width="162.505" height="10" as="geometry" />
        </mxCell>
        <mxCell id="7EOyPtN6c00PJySaBQEj-45" value="" style="endArrow=none;html=1;rounded=0;fontFamily=Helvetica;fontSize=12;fontColor=default;exitX=0.375;exitY=1;exitDx=0;exitDy=0;" edge="1" parent="7EOyPtN6c00PJySaBQEj-39" source="7EOyPtN6c00PJySaBQEj-41">
          <mxGeometry width="50" height="50" relative="1" as="geometry">
            <mxPoint x="54.16833333333333" y="100" as="sourcePoint" />
            <mxPoint x="121.87875" y="40" as="targetPoint" />
          </mxGeometry>
        </mxCell>
        <mxCell id="7EOyPtN6c00PJySaBQEj-46" value="" style="group;" vertex="1" connectable="0" parent="1">
          <mxGeometry x="330" y="-240" width="120" height="80" as="geometry" />
        </mxCell>
        <mxCell id="7EOyPtN6c00PJySaBQEj-47" value="" style="group;shadow=1;" vertex="1" connectable="0" parent="7EOyPtN6c00PJySaBQEj-46">
          <mxGeometry width="120" height="80" as="geometry" />
        </mxCell>
        <mxCell id="7EOyPtN6c00PJySaBQEj-48" value="" style="shape=hexagon;perimeter=hexagonPerimeter2;whiteSpace=wrap;html=1;fixedSize=1;size=20;" vertex="1" parent="7EOyPtN6c00PJySaBQEj-47">
          <mxGeometry width="120" height="80" as="geometry" />
        </mxCell>
        <mxCell id="7EOyPtN6c00PJySaBQEj-49" value="" style="endArrow=none;html=1;rounded=0;entryX=1;entryY=0.5;entryDx=0;entryDy=0;" edge="1" parent="7EOyPtN6c00PJySaBQEj-47" target="7EOyPtN6c00PJySaBQEj-48">
          <mxGeometry width="50" height="50" relative="1" as="geometry">
            <mxPoint y="39.860000000000014" as="sourcePoint" />
            <mxPoint x="80" y="39.860000000000014" as="targetPoint" />
          </mxGeometry>
        </mxCell>
        <mxCell id="7EOyPtN6c00PJySaBQEj-50" value="void main" style="text;align=center;html=1;verticalAlign=middle;whiteSpace=wrap;rounded=0;fontSize=12;fontFamily=Helvetica;" vertex="1" parent="7EOyPtN6c00PJySaBQEj-47">
          <mxGeometry x="30" y="10" width="60" height="10" as="geometry" />
        </mxCell>
        <mxCell id="7EOyPtN6c00PJySaBQEj-51" value="" style="endArrow=none;html=1;rounded=0;fontFamily=Helvetica;fontSize=12;fontColor=default;exitX=0.375;exitY=1;exitDx=0;exitDy=0;" edge="1" parent="7EOyPtN6c00PJySaBQEj-46" source="7EOyPtN6c00PJySaBQEj-48">
          <mxGeometry width="50" height="50" relative="1" as="geometry">
            <mxPoint x="20" y="100" as="sourcePoint" />
            <mxPoint x="45" y="40" as="targetPoint" />
          </mxGeometry>
        </mxCell>
        <mxCell id="7EOyPtN6c00PJySaBQEj-52" value="" style="group" vertex="1" connectable="0" parent="1">
          <mxGeometry x="881.19" y="-240" width="260" height="80" as="geometry" />
        </mxCell>
        <mxCell id="7EOyPtN6c00PJySaBQEj-53" value="" style="group;shadow=1;" vertex="1" connectable="0" parent="7EOyPtN6c00PJySaBQEj-52">
          <mxGeometry width="260" height="80" as="geometry" />
        </mxCell>
        <mxCell id="dxoL3kc4gIrELIWLgSA1-10" style="edgeStyle=orthogonalEdgeStyle;rounded=0;orthogonalLoop=1;jettySize=auto;html=1;exitX=0.5;exitY=1;exitDx=0;exitDy=0;endArrow=none;endFill=0;" edge="1" parent="7EOyPtN6c00PJySaBQEj-53" source="7EOyPtN6c00PJySaBQEj-55">
          <mxGeometry relative="1" as="geometry">
            <mxPoint x="130.14333333333298" y="110.00000000000011" as="targetPoint" />
          </mxGeometry>
        </mxCell>
        <mxCell id="7EOyPtN6c00PJySaBQEj-55" value="" style="shape=hexagon;perimeter=hexagonPerimeter2;whiteSpace=wrap;html=1;fixedSize=1;size=20;" vertex="1" parent="7EOyPtN6c00PJySaBQEj-53">
          <mxGeometry width="260" height="80" as="geometry" />
        </mxCell>
        <mxCell id="7EOyPtN6c00PJySaBQEj-56" value="" style="endArrow=none;html=1;rounded=0;entryX=1;entryY=0.5;entryDx=0;entryDy=0;" edge="1" parent="7EOyPtN6c00PJySaBQEj-53" target="7EOyPtN6c00PJySaBQEj-55">
          <mxGeometry width="50" height="50" relative="1" as="geometry">
            <mxPoint y="39.860000000000014" as="sourcePoint" />
            <mxPoint x="173.33333333333331" y="39.860000000000014" as="targetPoint" />
          </mxGeometry>
        </mxCell>
        <mxCell id="7EOyPtN6c00PJySaBQEj-57" value="int x" style="text;strokeColor=none;align=center;fillColor=none;html=1;verticalAlign=middle;whiteSpace=wrap;rounded=0;fontSize=12;fontFamily=Helvetica;fontColor=default;" vertex="1" parent="7EOyPtN6c00PJySaBQEj-53">
          <mxGeometry x="21.666666666666664" y="40" width="86.66666666666666" height="30" as="geometry" />
        </mxCell>
        <mxCell id="7EOyPtN6c00PJySaBQEj-58" value="float vec[]" style="text;strokeColor=none;align=center;fillColor=none;html=1;verticalAlign=middle;whiteSpace=wrap;rounded=0;fontSize=12;fontFamily=Helvetica;fontColor=default;" vertex="1" parent="7EOyPtN6c00PJySaBQEj-53">
          <mxGeometry x="108.33333333333333" y="40" width="86.66666666666666" height="30" as="geometry" />
        </mxCell>
        <mxCell id="7EOyPtN6c00PJySaBQEj-59" value="void inicializarCero" style="text;strokeColor=none;align=center;fillColor=none;html=1;verticalAlign=middle;whiteSpace=wrap;rounded=0;fontSize=12;fontFamily=Helvetica;fontColor=default;" vertex="1" parent="7EOyPtN6c00PJySaBQEj-53">
          <mxGeometry x="65" y="10" width="130" height="10" as="geometry" />
        </mxCell>
        <mxCell id="7EOyPtN6c00PJySaBQEj-60" value="" style="endArrow=none;html=1;rounded=0;fontFamily=Helvetica;fontSize=12;fontColor=default;exitX=0.375;exitY=1;exitDx=0;exitDy=0;movable=0;resizable=0;rotatable=0;deletable=0;editable=0;locked=1;connectable=0;" edge="1" parent="7EOyPtN6c00PJySaBQEj-52" source="7EOyPtN6c00PJySaBQEj-55">
          <mxGeometry width="50" height="50" relative="1" as="geometry">
            <mxPoint x="43.33333333333333" y="100" as="sourcePoint" />
            <mxPoint x="97.5" y="40" as="targetPoint" />
          </mxGeometry>
        </mxCell>
        <mxCell id="dxoL3kc4gIrELIWLgSA1-11" style="edgeStyle=orthogonalEdgeStyle;rounded=0;orthogonalLoop=1;jettySize=auto;html=1;exitX=0.5;exitY=1;exitDx=0;exitDy=0;entryX=0.5;entryY=0;entryDx=0;entryDy=0;endArrow=none;endFill=0;" edge="1" parent="1" source="7EOyPtN6c00PJySaBQEj-62" target="7EOyPtN6c00PJySaBQEj-64">
          <mxGeometry relative="1" as="geometry" />
        </mxCell>
        <mxCell id="7EOyPtN6c00PJySaBQEj-62" value="int i=0:i&amp;lt;x;i++" style="swimlane;horizontal=0;whiteSpace=wrap;html=1;" vertex="1" parent="1">
          <mxGeometry x="891.19" y="-130" width="240" height="90" as="geometry" />
        </mxCell>
        <mxCell id="7EOyPtN6c00PJySaBQEj-63" value="vec[i] = 0" style="whiteSpace=wrap;html=1;" vertex="1" parent="7EOyPtN6c00PJySaBQEj-62">
          <mxGeometry x="79.99999999999996" y="10" width="120" height="40" as="geometry" />
        </mxCell>
        <mxCell id="7EOyPtN6c00PJySaBQEj-64" value="F" style="ellipse;whiteSpace=wrap;html=1;" vertex="1" parent="1">
          <mxGeometry x="991.19" y="-20" width="40" height="40" as="geometry" />
        </mxCell>
        <mxCell id="dxoL3kc4gIrELIWLgSA1-5" style="edgeStyle=orthogonalEdgeStyle;rounded=0;orthogonalLoop=1;jettySize=auto;html=1;exitX=0.5;exitY=1;exitDx=0;exitDy=0;entryX=0.5;entryY=0;entryDx=0;entryDy=0;endArrow=none;endFill=0;" edge="1" parent="1" source="7EOyPtN6c00PJySaBQEj-65" target="7EOyPtN6c00PJySaBQEj-67">
          <mxGeometry relative="1" as="geometry" />
        </mxCell>
        <mxCell id="7EOyPtN6c00PJySaBQEj-65" value="float millasPTA[150]&lt;br&gt;" style="whiteSpace=wrap;html=1;" vertex="1" parent="1">
          <mxGeometry x="329.99" y="70" width="120" height="30" as="geometry" />
        </mxCell>
        <mxCell id="7EOyPtN6c00PJySaBQEj-66" value="" style="group;shadow=1;" vertex="1" connectable="0" parent="1">
          <mxGeometry x="260" y="120" width="260" height="80" as="geometry" />
        </mxCell>
        <mxCell id="7EOyPtN6c00PJySaBQEj-67" value="" style="shape=hexagon;perimeter=hexagonPerimeter2;whiteSpace=wrap;html=1;fixedSize=1;size=20;" vertex="1" parent="7EOyPtN6c00PJySaBQEj-66">
          <mxGeometry width="260" height="80" as="geometry" />
        </mxCell>
        <mxCell id="7EOyPtN6c00PJySaBQEj-68" value="" style="endArrow=none;html=1;rounded=0;entryX=1;entryY=0.5;entryDx=0;entryDy=0;" edge="1" parent="7EOyPtN6c00PJySaBQEj-66" target="7EOyPtN6c00PJySaBQEj-67">
          <mxGeometry width="50" height="50" relative="1" as="geometry">
            <mxPoint y="39.860000000000014" as="sourcePoint" />
            <mxPoint x="173.33333333333331" y="39.860000000000014" as="targetPoint" />
          </mxGeometry>
        </mxCell>
        <mxCell id="7EOyPtN6c00PJySaBQEj-69" value="150" style="text;strokeColor=none;align=center;fillColor=none;html=1;verticalAlign=middle;whiteSpace=wrap;rounded=0;fontSize=12;fontFamily=Helvetica;fontColor=default;" vertex="1" parent="7EOyPtN6c00PJySaBQEj-66">
          <mxGeometry x="21.666666666666664" y="40" width="86.66666666666666" height="30" as="geometry" />
        </mxCell>
        <mxCell id="7EOyPtN6c00PJySaBQEj-70" value="millasPTA" style="text;strokeColor=none;align=center;fillColor=none;html=1;verticalAlign=middle;whiteSpace=wrap;rounded=0;fontSize=12;fontFamily=Helvetica;fontColor=default;" vertex="1" parent="7EOyPtN6c00PJySaBQEj-66">
          <mxGeometry x="108.33333333333333" y="40" width="86.66666666666666" height="30" as="geometry" />
        </mxCell>
        <mxCell id="7EOyPtN6c00PJySaBQEj-71" value="inicializarCero" style="text;strokeColor=none;align=center;fillColor=none;html=1;verticalAlign=middle;whiteSpace=wrap;rounded=0;fontSize=12;fontFamily=Helvetica;fontColor=default;" vertex="1" parent="7EOyPtN6c00PJySaBQEj-66">
          <mxGeometry x="65" y="10" width="130" height="10" as="geometry" />
        </mxCell>
        <mxCell id="7EOyPtN6c00PJySaBQEj-72" value="" style="endArrow=none;html=1;rounded=0;exitX=0.415;exitY=0.995;exitDx=0;exitDy=0;exitPerimeter=0;" edge="1" parent="7EOyPtN6c00PJySaBQEj-66" source="7EOyPtN6c00PJySaBQEj-67">
          <mxGeometry width="50" height="50" relative="1" as="geometry">
            <mxPoint x="125.16000000000003" y="60" as="sourcePoint" />
            <mxPoint x="108.32952380952389" y="40" as="targetPoint" />
          </mxGeometry>
        </mxCell>
        <mxCell id="7EOyPtN6c00PJySaBQEj-73" value="" style="group" vertex="1" connectable="0" parent="1">
          <mxGeometry x="872.63" y="1030" width="260" height="80" as="geometry" />
        </mxCell>
        <mxCell id="7EOyPtN6c00PJySaBQEj-74" value="" style="group;shadow=1;" vertex="1" connectable="0" parent="7EOyPtN6c00PJySaBQEj-73">
          <mxGeometry width="260" height="80" as="geometry" />
        </mxCell>
        <mxCell id="7EOyPtN6c00PJySaBQEj-75" value="" style="shape=hexagon;perimeter=hexagonPerimeter2;whiteSpace=wrap;html=1;fixedSize=1;size=20;" vertex="1" parent="7EOyPtN6c00PJySaBQEj-74">
          <mxGeometry width="260" height="80" as="geometry" />
        </mxCell>
        <mxCell id="7EOyPtN6c00PJySaBQEj-76" value="" style="endArrow=none;html=1;rounded=0;entryX=1;entryY=0.5;entryDx=0;entryDy=0;" edge="1" parent="7EOyPtN6c00PJySaBQEj-74" target="7EOyPtN6c00PJySaBQEj-75">
          <mxGeometry width="50" height="50" relative="1" as="geometry">
            <mxPoint y="39.860000000000014" as="sourcePoint" />
            <mxPoint x="173.33333333333331" y="39.860000000000014" as="targetPoint" />
          </mxGeometry>
        </mxCell>
        <mxCell id="7EOyPtN6c00PJySaBQEj-77" value="float millasPTA[150]" style="text;strokeColor=none;align=center;fillColor=none;html=1;verticalAlign=middle;whiteSpace=wrap;rounded=0;fontSize=12;fontFamily=Helvetica;fontColor=default;" vertex="1" parent="7EOyPtN6c00PJySaBQEj-74">
          <mxGeometry x="108.33333333333333" y="40" width="86.66666666666666" height="30" as="geometry" />
        </mxCell>
        <mxCell id="7EOyPtN6c00PJySaBQEj-78" value="void buscarMax" style="text;strokeColor=none;align=center;fillColor=none;html=1;verticalAlign=middle;whiteSpace=wrap;rounded=0;fontSize=12;fontFamily=Helvetica;fontColor=default;" vertex="1" parent="7EOyPtN6c00PJySaBQEj-74">
          <mxGeometry x="65" y="10" width="130" height="10" as="geometry" />
        </mxCell>
        <mxCell id="7EOyPtN6c00PJySaBQEj-79" value="" style="endArrow=none;html=1;rounded=0;fontFamily=Helvetica;fontSize=12;fontColor=default;exitX=0.375;exitY=1;exitDx=0;exitDy=0;movable=0;resizable=0;rotatable=0;deletable=0;editable=0;locked=1;connectable=0;" edge="1" parent="7EOyPtN6c00PJySaBQEj-73" source="7EOyPtN6c00PJySaBQEj-75">
          <mxGeometry width="50" height="50" relative="1" as="geometry">
            <mxPoint x="43.33333333333333" y="100" as="sourcePoint" />
            <mxPoint x="97.5" y="40" as="targetPoint" />
          </mxGeometry>
        </mxCell>
        <mxCell id="dxoL3kc4gIrELIWLgSA1-20" value="" style="edgeStyle=orthogonalEdgeStyle;rounded=0;orthogonalLoop=1;jettySize=auto;html=1;endArrow=none;endFill=0;" edge="1" parent="1" source="7EOyPtN6c00PJySaBQEj-81" target="7EOyPtN6c00PJySaBQEj-95">
          <mxGeometry relative="1" as="geometry" />
        </mxCell>
        <mxCell id="7EOyPtN6c00PJySaBQEj-81" value="int i=1;I&amp;lt;150;i++" style="swimlane;horizontal=0;whiteSpace=wrap;html=1;" vertex="1" parent="1">
          <mxGeometry x="820" y="1220" width="350" height="200" as="geometry" />
        </mxCell>
        <mxCell id="7EOyPtN6c00PJySaBQEj-82" style="edgeStyle=orthogonalEdgeStyle;rounded=0;orthogonalLoop=1;jettySize=auto;html=1;exitX=0;exitY=0.5;exitDx=0;exitDy=0;endArrow=none;endFill=0;" edge="1" parent="7EOyPtN6c00PJySaBQEj-81" source="7EOyPtN6c00PJySaBQEj-83" target="7EOyPtN6c00PJySaBQEj-84">
          <mxGeometry relative="1" as="geometry" />
        </mxCell>
        <mxCell id="7EOyPtN6c00PJySaBQEj-83" value="millasPTA[i] &amp;gt; max" style="rhombus;whiteSpace=wrap;html=1;" vertex="1" parent="7EOyPtN6c00PJySaBQEj-81">
          <mxGeometry x="142.63" y="10" width="117.37" height="80" as="geometry" />
        </mxCell>
        <mxCell id="7EOyPtN6c00PJySaBQEj-84" value="max = millasPTA[i]" style="whiteSpace=wrap;html=1;" vertex="1" parent="7EOyPtN6c00PJySaBQEj-81">
          <mxGeometry x="50.960000000000036" y="85" width="120" height="30" as="geometry" />
        </mxCell>
        <mxCell id="7EOyPtN6c00PJySaBQEj-85" value="&amp;nbsp;clienteMaxMillas = i + 1" style="whiteSpace=wrap;html=1;" vertex="1" parent="7EOyPtN6c00PJySaBQEj-81">
          <mxGeometry x="50.96" y="130" width="129.04" height="30" as="geometry" />
        </mxCell>
        <mxCell id="7EOyPtN6c00PJySaBQEj-86" style="edgeStyle=orthogonalEdgeStyle;rounded=0;orthogonalLoop=1;jettySize=auto;html=1;exitX=0.5;exitY=1;exitDx=0;exitDy=0;entryX=0.462;entryY=0.04;entryDx=0;entryDy=0;entryPerimeter=0;endArrow=none;endFill=0;" edge="1" parent="7EOyPtN6c00PJySaBQEj-81" source="7EOyPtN6c00PJySaBQEj-84" target="7EOyPtN6c00PJySaBQEj-85">
          <mxGeometry relative="1" as="geometry" />
        </mxCell>
        <mxCell id="7EOyPtN6c00PJySaBQEj-87" style="edgeStyle=orthogonalEdgeStyle;rounded=0;orthogonalLoop=1;jettySize=auto;html=1;exitX=1;exitY=0.5;exitDx=0;exitDy=0;entryX=0.475;entryY=0.987;entryDx=0;entryDy=0;entryPerimeter=0;endArrow=none;endFill=0;" edge="1" parent="7EOyPtN6c00PJySaBQEj-81" source="7EOyPtN6c00PJySaBQEj-83" target="7EOyPtN6c00PJySaBQEj-85">
          <mxGeometry relative="1" as="geometry" />
        </mxCell>
        <mxCell id="7EOyPtN6c00PJySaBQEj-88" style="edgeStyle=orthogonalEdgeStyle;rounded=0;orthogonalLoop=1;jettySize=auto;html=1;exitX=0.5;exitY=1;exitDx=0;exitDy=0;entryX=0.5;entryY=0;entryDx=0;entryDy=0;endArrow=none;endFill=0;" edge="1" parent="1" source="7EOyPtN6c00PJySaBQEj-89" target="7EOyPtN6c00PJySaBQEj-91">
          <mxGeometry relative="1" as="geometry" />
        </mxCell>
        <mxCell id="7EOyPtN6c00PJySaBQEj-89" value="max = millasPTA[0]" style="whiteSpace=wrap;html=1;" vertex="1" parent="1">
          <mxGeometry x="942.63" y="1130" width="120" height="30" as="geometry" />
        </mxCell>
        <mxCell id="7EOyPtN6c00PJySaBQEj-90" style="edgeStyle=orthogonalEdgeStyle;rounded=0;orthogonalLoop=1;jettySize=auto;html=1;exitX=0.5;exitY=1;exitDx=0;exitDy=0;endArrow=none;endFill=0;" edge="1" parent="1" source="7EOyPtN6c00PJySaBQEj-91">
          <mxGeometry relative="1" as="geometry">
            <mxPoint x="1002.9403448275863" y="1220" as="targetPoint" />
          </mxGeometry>
        </mxCell>
        <mxCell id="7EOyPtN6c00PJySaBQEj-91" value="clienteMaxMillas = 1" style="whiteSpace=wrap;html=1;" vertex="1" parent="1">
          <mxGeometry x="942.63" y="1170" width="120" height="30" as="geometry" />
        </mxCell>
        <mxCell id="7EOyPtN6c00PJySaBQEj-93" value="F" style="ellipse;whiteSpace=wrap;html=1;" vertex="1" parent="1">
          <mxGeometry x="970" y="1510" width="50" height="50" as="geometry" />
        </mxCell>
        <mxCell id="7EOyPtN6c00PJySaBQEj-94" style="edgeStyle=orthogonalEdgeStyle;rounded=0;orthogonalLoop=1;jettySize=auto;html=1;exitX=0.5;exitY=1;exitDx=0;exitDy=0;entryX=0.5;entryY=0;entryDx=0;entryDy=0;endArrow=none;endFill=0;" edge="1" parent="1" source="7EOyPtN6c00PJySaBQEj-75" target="7EOyPtN6c00PJySaBQEj-89">
          <mxGeometry relative="1" as="geometry" />
        </mxCell>
        <mxCell id="dxoL3kc4gIrELIWLgSA1-21" style="edgeStyle=orthogonalEdgeStyle;rounded=0;orthogonalLoop=1;jettySize=auto;html=1;exitX=0.5;exitY=1;exitDx=0;exitDy=0;entryX=0.5;entryY=0;entryDx=0;entryDy=0;endArrow=none;endFill=0;" edge="1" parent="1" source="7EOyPtN6c00PJySaBQEj-95" target="7EOyPtN6c00PJySaBQEj-93">
          <mxGeometry relative="1" as="geometry" />
        </mxCell>
        <mxCell id="7EOyPtN6c00PJySaBQEj-95" value="clienteMaxMillas" style="shape=trapezoid;perimeter=trapezoidPerimeter;whiteSpace=wrap;html=1;fixedSize=1;" vertex="1" parent="1">
          <mxGeometry x="935" y="1450" width="120" height="40" as="geometry" />
        </mxCell>
        <mxCell id="7EOyPtN6c00PJySaBQEj-97" value="" style="group" vertex="1" connectable="0" parent="1">
          <mxGeometry x="259.99" y="340" width="260" height="80" as="geometry" />
        </mxCell>
        <mxCell id="7EOyPtN6c00PJySaBQEj-98" value="" style="group;shadow=1;" vertex="1" connectable="0" parent="7EOyPtN6c00PJySaBQEj-97">
          <mxGeometry width="260" height="80" as="geometry" />
        </mxCell>
        <mxCell id="7EOyPtN6c00PJySaBQEj-99" value="" style="shape=hexagon;perimeter=hexagonPerimeter2;whiteSpace=wrap;html=1;fixedSize=1;size=20;" vertex="1" parent="7EOyPtN6c00PJySaBQEj-98">
          <mxGeometry width="260" height="80" as="geometry" />
        </mxCell>
        <mxCell id="7EOyPtN6c00PJySaBQEj-100" value="" style="endArrow=none;html=1;rounded=0;entryX=1;entryY=0.5;entryDx=0;entryDy=0;" edge="1" parent="7EOyPtN6c00PJySaBQEj-98" target="7EOyPtN6c00PJySaBQEj-99">
          <mxGeometry width="50" height="50" relative="1" as="geometry">
            <mxPoint y="39.860000000000014" as="sourcePoint" />
            <mxPoint x="173.33333333333331" y="39.860000000000014" as="targetPoint" />
          </mxGeometry>
        </mxCell>
        <mxCell id="7EOyPtN6c00PJySaBQEj-101" value="&amp;nbsp;millasPTA" style="text;strokeColor=none;align=center;fillColor=none;html=1;verticalAlign=middle;whiteSpace=wrap;rounded=0;fontSize=12;fontFamily=Helvetica;fontColor=default;" vertex="1" parent="7EOyPtN6c00PJySaBQEj-98">
          <mxGeometry x="108.33333333333333" y="40" width="86.66666666666666" height="30" as="geometry" />
        </mxCell>
        <mxCell id="7EOyPtN6c00PJySaBQEj-102" value="buscarMax" style="text;strokeColor=none;align=center;fillColor=none;html=1;verticalAlign=middle;whiteSpace=wrap;rounded=0;fontSize=12;fontFamily=Helvetica;fontColor=default;" vertex="1" parent="7EOyPtN6c00PJySaBQEj-98">
          <mxGeometry x="65" y="10" width="130" height="10" as="geometry" />
        </mxCell>
        <mxCell id="7EOyPtN6c00PJySaBQEj-103" value="" style="endArrow=none;html=1;rounded=0;fontFamily=Helvetica;fontSize=12;fontColor=default;exitX=0.375;exitY=1;exitDx=0;exitDy=0;movable=0;resizable=0;rotatable=0;deletable=0;editable=0;locked=1;connectable=0;" edge="1" parent="7EOyPtN6c00PJySaBQEj-97" source="7EOyPtN6c00PJySaBQEj-99">
          <mxGeometry width="50" height="50" relative="1" as="geometry">
            <mxPoint x="43.33333333333333" y="100" as="sourcePoint" />
            <mxPoint x="97.5" y="40" as="targetPoint" />
          </mxGeometry>
        </mxCell>
        <mxCell id="7EOyPtN6c00PJySaBQEj-119" value="nro_cliente, cod_vuelo,dia,mes, cant_pasajes,nro_vendedor&amp;nbsp;" style="shape=trapezoid;perimeter=trapezoidPerimeter;whiteSpace=wrap;html=1;fixedSize=1;direction=west;rounded=0;" vertex="1" parent="1">
          <mxGeometry x="915.81" y="585" width="182.37" height="60" as="geometry" />
        </mxCell>
        <mxCell id="7EOyPtN6c00PJySaBQEj-120" value="millasPTA[nro_cliente - 1] += v_distancia[cod_vuelo - 1] * cant_pasajes" style="whiteSpace=wrap;html=1;" vertex="1" parent="1">
          <mxGeometry x="920" y="720" width="182.38" height="40" as="geometry" />
        </mxCell>
        <mxCell id="kJUFjtMTr3cK5gbmItrI-7" style="edgeStyle=orthogonalEdgeStyle;rounded=0;orthogonalLoop=1;jettySize=auto;html=1;exitX=0.5;exitY=1;exitDx=0;exitDy=0;entryX=0.5;entryY=0;entryDx=0;entryDy=0;endArrow=none;endFill=0;" edge="1" parent="1" source="7EOyPtN6c00PJySaBQEj-34" target="7EOyPtN6c00PJySaBQEj-65">
          <mxGeometry relative="1" as="geometry" />
        </mxCell>
        <mxCell id="dxoL3kc4gIrELIWLgSA1-6" style="edgeStyle=orthogonalEdgeStyle;rounded=0;orthogonalLoop=1;jettySize=auto;html=1;exitX=0.5;exitY=1;exitDx=0;exitDy=0;entryX=0.5;entryY=0;entryDx=0;entryDy=0;endArrow=none;endFill=0;" edge="1" parent="1" source="7EOyPtN6c00PJySaBQEj-67" target="7EOyPtN6c00PJySaBQEj-41">
          <mxGeometry relative="1" as="geometry" />
        </mxCell>
        <mxCell id="dxoL3kc4gIrELIWLgSA1-7" style="edgeStyle=orthogonalEdgeStyle;rounded=0;orthogonalLoop=1;jettySize=auto;html=1;exitX=0.5;exitY=1;exitDx=0;exitDy=0;entryX=0.5;entryY=0;entryDx=0;entryDy=0;endArrow=none;endFill=0;" edge="1" parent="1" source="7EOyPtN6c00PJySaBQEj-41" target="7EOyPtN6c00PJySaBQEj-99">
          <mxGeometry relative="1" as="geometry" />
        </mxCell>
        <mxCell id="dxoL3kc4gIrELIWLgSA1-18" style="edgeStyle=orthogonalEdgeStyle;rounded=0;orthogonalLoop=1;jettySize=auto;html=1;exitX=0.5;exitY=1;exitDx=0;exitDy=0;entryX=0.51;entryY=1;entryDx=0;entryDy=0;entryPerimeter=0;endArrow=none;endFill=0;" edge="1" parent="1" source="7EOyPtN6c00PJySaBQEj-27" target="7EOyPtN6c00PJySaBQEj-119">
          <mxGeometry relative="1" as="geometry" />
        </mxCell>
        <mxCell id="dxoL3kc4gIrELIWLgSA1-19" style="edgeStyle=orthogonalEdgeStyle;rounded=0;orthogonalLoop=1;jettySize=auto;html=1;exitX=0.5;exitY=0;exitDx=0;exitDy=0;entryX=0.514;entryY=0.002;entryDx=0;entryDy=0;entryPerimeter=0;endArrow=none;endFill=0;" edge="1" parent="1" source="7EOyPtN6c00PJySaBQEj-119" target="7EOyPtN6c00PJySaBQEj-11">
          <mxGeometry relative="1" as="geometry" />
        </mxCell>
      </root>
    </mxGraphModel>
  </diagram>
  <diagram id="KF8iCO01yVMPmJG7CEI8" name="Punto-B">
    <mxGraphModel dx="2607" dy="1455" grid="1" gridSize="10" guides="1" tooltips="1" connect="1" arrows="1" fold="1" page="0" pageScale="1" pageWidth="827" pageHeight="1169" math="0" shadow="0">
      <root>
        <mxCell id="0" />
        <mxCell id="1" parent="0" />
      </root>
    </mxGraphModel>
  </diagram>
</mxfile>
